<svg id="Layer_1" height="512" viewBox="0 0 512 512" width="512" xmlns="http://www.w3.org/2000/svg" data-name="Layer 1"><path d="m102.56 243.77h-2.32a6 6 0 1 0 0 12h2.32a6 6 0 1 0 0-12z"/><path d="m143.32 243.77h-17.56a6 6 0 0 0 0 12h17.56a6 6 0 0 0 0-12z"/><path d="m292.76 243.77h-125.87a6 6 0 0 0 0 12h125.87a6 6 0 0 0 0-12z"/><path d="m102.56 203.77h-2.32a6 6 0 1 0 0 12h2.32a6 6 0 1 0 0-12z"/><path d="m143.32 203.77h-17.56a6 6 0 0 0 0 12h17.56a6 6 0 0 0 0-12z"/><path d="m160.89 209.77a6 6 0 0 0 6 6h125.87a6 6 0 0 0 0-12h-125.87a6 6 0 0 0 -6 6z"/><path d="m102.56 283.77h-2.32a6 6 0 0 0 0 12h2.32a6 6 0 0 0 0-12z"/><path d="m143.32 283.77h-17.56a6 6 0 1 0 0 12h17.56a6 6 0 0 0 0-12z"/><path d="m102.56 323.77h-2.32a6 6 0 0 0 0 12h2.32a6 6 0 0 0 0-12z"/><path d="m143.32 323.77h-17.56a6 6 0 1 0 0 12h17.56a6 6 0 0 0 0-12z"/><path d="m121.01 166.958a20.762 20.762 0 0 0 -6-40.638 8.765 8.765 0 1 1 8.76-8.77 6 6 0 1 0 12 0 20.79 20.79 0 0 0 -14.76-19.868v-3.012a6 6 0 0 0 -12 0v3.011a20.761 20.761 0 0 0 6 40.639 8.764 8.764 0 0 1 .053 17.527h-.053-.053a8.773 8.773 0 0 1 -8.717-8.757 6 6 0 0 0 -12 0 20.793 20.793 0 0 0 14.77 19.869v3.681a6 6 0 0 0 12 0z"/><path d="m162.5 170.64a6 6 0 0 0 12 0v-3.681a20.761 20.761 0 0 0 -6-40.639 8.765 8.765 0 1 1 8.77-8.77 6 6 0 0 0 12 0 20.793 20.793 0 0 0 -14.77-19.869v-3.011a6 6 0 0 0 -12 0v3.011a20.761 20.761 0 0 0 6 40.639 8.764 8.764 0 0 1 .053 17.527h-.053-.053a8.773 8.773 0 0 1 -8.717-8.757 6 6 0 0 0 -12 0 20.793 20.793 0 0 0 14.77 19.869z"/><path d="m294.46 83.8a6 6 0 0 0 6-6v-6.83a6 6 0 1 0 -12 0v6.83a6 6 0 0 0 6 6z"/><path d="m294.46 160.24a6 6 0 0 0 6-6v-58.53a6 6 0 1 0 -12 0v58.53a6 6 0 0 0 6 6z"/><path d="m332.5 253.569v-240.939a6 6 0 0 0 -9.748-4.686l-28.762 23-28.752-23a6 6 0 0 0 -7.5 0l-28.752 23-28.752-23a6 6 0 0 0 -7.5 0l-28.752 23-28.752-23a6 6 0 0 0 -7.5 0l-28.752 23-28.741-23a6 6 0 0 0 -9.737 4.686v426.47a6 6 0 0 0 9.748 4.686l28.762-23 28.752 23a6 6 0 0 0 7.5 0l28.752-23 28.752 23a6 6 0 0 0 6.892.425l13.3-8.184a126 126 0 1 0 119.542-182.458zm-7 239.8a113.956 113.956 0 0 1 -112.551-95.769 6 6 0 0 0 -11.848 1.9 125.179 125.179 0 0 0 6.926 25.469l-11.066 6.808-29.2-23.362a6 6 0 0 0 -7.5 0l-28.752 23-28.752-23a6 6 0 0 0 -7.5 0l-22.757 18.204v-401.503l22.741 18.2a6 6 0 0 0 7.5 0l28.752-23 28.752 23a6 6 0 0 0 7.5 0l28.752-23 28.752 23a6 6 0 0 0 7.5 0l28.752-23 28.752 23a6 6 0 0 0 7.5 0l22.762-18.2v228.36a125.222 125.222 0 0 0 -77.071 30.294h-76.554a6 6 0 0 0 0 12h64.339a125.663 125.663 0 0 0 -18.845 28h-45.494a6 6 0 0 0 0 12h40.343a125.835 125.835 0 0 0 -7.638 38.663 6 6 0 0 0 11.991.462 114 114 0 0 1 113.914-109.525c.271 0 .551 0 .823.007h.129a114 114 0 0 1 -.952 227.99z"/><path d="m330.677 301.337a6 6 0 0 0 -10.354 0l-43.462 74.183a56.372 56.372 0 0 0 88.491 68.344 56.4 56.4 0 0 0 8.783-68.344zm26.192 134.039a44.366 44.366 0 0 1 -69.652-53.793l38.283-65.344 38.283 65.344a44.394 44.394 0 0 1 -6.914 53.793z"/><path d="m354.163 397.377a6.005 6.005 0 0 0 -7.065 4.7 21.924 21.924 0 0 1 -6.021 11.21 22.446 22.446 0 0 1 -3.946 3.146 22.927 22.927 0 0 1 -4.467 2.122 6 6 0 1 0 3.952 11.331 35 35 0 0 0 6.847-3.26 34.519 34.519 0 0 0 6.1-4.854 33.885 33.885 0 0 0 9.3-17.329 6 6 0 0 0 -4.7-7.066z"/></svg>