<?xml version="1.0"?>
<svg xmlns="http://www.w3.org/2000/svg" id="Layer_1" data-name="Layer 1" viewBox="0 0 512 512" width="512" height="512"><path d="M143.32,198.45H376.98a6,6,0,0,0,0-12H143.32a6,6,0,0,0,0,12Z"/><path d="M382.98,232.45a6,6,0,0,0-6-6H143.32a6,6,0,0,0,0,12H376.98A6,6,0,0,0,382.98,232.45Z"/><path d="M186,171.255a47.528,47.528,0,0,0,41.007-71.547l-35.83-61.161a6,6,0,0,0-10.354,0l-35.83,61.161a6,6,0,0,0,10.354,6.065L186,53.45l30.653,52.323A35.525,35.525,0,1,1,150.47,123.71a6,6,0,0,0-12,0A47.543,47.543,0,0,0,186,171.255Z"/><path d="M193.54,146.4a5.978,5.978,0,0,0,1.961-.331,29.16,29.16,0,0,0,19.039-21.758,6,6,0,1,0-11.76-2.384,17.164,17.164,0,0,1-11.2,12.8A6,6,0,0,0,193.54,146.4Z"/><path d="M253.32,158.45H376.98a6,6,0,0,0,0-12H253.32a6,6,0,0,0,0,12Z"/><path d="M253.32,118.45H376.98a6,6,0,0,0,0-12H253.32a6,6,0,0,0,0,12Z"/><path d="M253.32,78.45H376.98a6,6,0,0,0,0-12H253.32a6,6,0,0,0,0,12Z"/><path d="M411.647,373.116,409.9,16.461a6,6,0,0,0-6-5.971H115.46a6,6,0,0,0-6,6V357.159L99.3,376.429a12.7,12.7,0,0,0,5.1,17.128l20.731,11.587a12.86,12.86,0,0,0,6.266,1.637,13.009,13.009,0,0,0,3.7-.541,12.751,12.751,0,0,0,7.709-6.3l2.1-3.962,7.05,5.831-12.987,17.859a20.231,20.231,0,0,0,16.377,32.117,20.591,20.591,0,0,0,3.271-.268,20.2,20.2,0,0,0,19.941,16.84,20.606,20.606,0,0,0,3.283-.269,20.178,20.178,0,0,0,19.931,16.851,20.528,20.528,0,0,0,3.286-.27,20.3,20.3,0,0,0,36.414,8.5l4-5.509,7.58,6a21.8,21.8,0,0,0,30.458-2.3,21.327,21.327,0,0,0,5.066-11.033,21.71,21.71,0,0,0,22.343-6.606,21.273,21.273,0,0,0,5.034-11.041,21.724,21.724,0,0,0,22.374-6.6,21.327,21.327,0,0,0,4.939-10.264,21.87,21.87,0,0,0,24-6.048l.26-.29.068-.076a21.01,21.01,0,0,0-2.2-29.8l-4.488-3.84a45.751,45.751,0,0,0,8.312-7.344,12.811,12.811,0,0,0,10.224,5.087,12.988,12.988,0,0,0,5.129-1.061l21.818-9.375a12.774,12.774,0,0,0,6.557-17.221ZM121.46,22.49H397.93l1.591,324.991-39.466-83.434a12.934,12.934,0,0,0-16.358-6.476l-22.427,8.76a12.78,12.78,0,0,0-6.929,17.4l2.231,4.69-.452.191c-8.488,1.744-14.431,1.487-23.251-.967l-22.411-6.24a35.865,35.865,0,0,0-20.393.325l-21.629,6.78a35.869,35.869,0,0,0-11.777,6.32,45.205,45.205,0,0,0-17.247-1.7l1.347-2.542a12.822,12.822,0,0,0-4.721-16.923l-20.593-12.416a12.9,12.9,0,0,0-18.073,5L121.46,334.391Zm40.635,413.9a8.314,8.314,0,0,1-11.533,1.868,8.236,8.236,0,0,1-1.879-11.535l21.54-29.62a8.277,8.277,0,0,1,14.987,4.821,8.172,8.172,0,0,1-1.575,4.835Zm23.333,16.421c-.036.049-.074.1-.111.157a8.335,8.335,0,0,1-11.547,1.865,8.211,8.211,0,0,1-1.867-11.512l15.61-21.478,0,0,0,0a8.271,8.271,0,0,1,14.97,4.84,8.167,8.167,0,0,1-1.574,4.833Zm23.21,16.59c-.035.048-.071.1-.107.15A8.331,8.331,0,0,1,197,471.416a8.237,8.237,0,0,1-1.935-11.444l.112-.161,10.69-14.7a8.282,8.282,0,0,1,15,4.821,8.113,8.113,0,0,1-1.577,4.826Zm29.852,7.186-6.722,9.528a8.341,8.341,0,0,1-11.563,1.875,8.228,8.228,0,0,1-1.936-11.424l.1-.14,5.868-8.058h0l0,0a8.268,8.268,0,0,1,14.252,8.222ZM358.571,431.5l-.284.317a9.833,9.833,0,0,1-13.769,1.041l-30.634-26.235a6,6,0,0,0-8.578.8,6.166,6.166,0,0,0,.964,8.483l22.082,18.922,0,0a9.422,9.422,0,0,1,.928,13.371,9.737,9.737,0,0,1-7.354,3.33,9.638,9.638,0,0,1-6.346-2.336l-22.032-18.869a6.167,6.167,0,0,0-8.529.355,6,6,0,0,0,.536,8.6l15.285,13.08c.057.054.116.106.175.157a9.518,9.518,0,0,1,.857,13.323,9.792,9.792,0,0,1-9.815,3.023,10.083,10.083,0,0,1-4.05-2.178l-15.156-12.979a6,6,0,0,0-8.931,1.275,6.134,6.134,0,0,0,1.273,7.965l8.274,7.1a9.457,9.457,0,0,1,1,13.439,9.8,9.8,0,0,1-13.7.981c-.058-.049-.116-.1-.175-.144l-9.674-7.661a20.165,20.165,0,0,0-18.293-23.6,20.243,20.243,0,0,0-8.229-19.582,20.1,20.1,0,0,0-10.141-3.677,20.262,20.262,0,0,0-8.233-19.6,20.143,20.143,0,0,0-9.349-3.611,20.274,20.274,0,0,0-36.15-16.543l-1.486,2.043-8.382-6.934,3.675-6.933a6.142,6.142,0,0,0-1.724-7.887,6,6,0,0,0-8.78,2.081l-11.613,21.911a.837.837,0,0,1-.517.412.921.921,0,0,1-.713-.072L110.25,383.079a.784.784,0,0,1-.332-1.051l58.066-110.174a.851.851,0,0,1,.54-.424.894.894,0,0,1,.718.1l20.592,12.415a.793.793,0,0,1,.314,1.047l-38.393,72.449a6.137,6.137,0,0,0,1.728,7.882,6,6,0,0,0,8.78-2.082l30.065-56.734a42.069,42.069,0,0,1,15.6-1.283,35.9,35.9,0,0,0-1.636,3.342l-6.61,15.958c-1.687,4.07-3.252,8.28-4.654,12.514l-6.6,19.96a6,6,0,0,0,3.295,7.382l1.4.611a34.668,34.668,0,0,0,33.259-2.542A33.6,33.6,0,0,0,241.452,337.6c.032-.329.059-.656.084-.988.272-1.272,1.772-7.482,5.593-9.587a4.266,4.266,0,0,1,3.2-.32l7.985,2.229a20.9,20.9,0,0,1,8.988,5.187l90.289,84.6a9.009,9.009,0,0,1,.981,12.771Zm43.553-49.917a.8.8,0,0,1-.463.464l-21.828,9.38a.89.89,0,0,1-1.153-.411l-27.929-58.692a6,6,0,0,0-10.836,5.157L363.243,386.5a33.777,33.777,0,0,1-11.9,11.086L275.7,325.558a32.914,32.914,0,0,0-14.159-8.177l-10.14-2.83a5.978,5.978,0,0,0-1.633-.221c-6.958.024-12.887,3.89-16.7,10.885a33.686,33.686,0,0,0-3.408,9.588l-.156,1.636a21.662,21.662,0,0,1-9.746,16,22.774,22.774,0,0,1-18.132,2.844l4.785-14.473c1.31-3.955,2.772-7.888,4.347-11.689l6.588-15.906a23.155,23.155,0,0,1,4.858-7.245,23.778,23.778,0,0,1,9.816-6l21.63-6.779a23.894,23.894,0,0,1,13.585-.216l22.411,6.24c10.853,3.021,18.854,3.3,29.518,1.029l2.563-.967,10.486,22.036a6,6,0,0,0,10.836-5.157l-17.88-37.577a.722.722,0,0,1-.021-.6.82.82,0,0,1,.48-.467l22.43-8.76a.9.9,0,0,1,1.143.427L402.1,380.991A.736.736,0,0,1,402.124,381.583Z"/></svg>
