<svg id="Layer_1" height="512" viewBox="0 0 512 512" width="512" xmlns="http://www.w3.org/2000/svg" data-name="Layer 1"><path d="m21.46 490.68h210.55a6 6 0 0 0 6-6v-242.26a6 6 0 1 0 -12 0v46.391l-61.35.008v-42.219a17.451 17.451 0 0 0 10.87-16.159 17.479 17.479 0 0 0 -17.46-17.46h-27.97v-168.431a11.242 11.242 0 0 1 11.23-11.23h231.55a11.242 11.242 0 0 1 11.23 11.23v19.63h-18.61a6 6 0 0 0 -6 6v16.02h-5.49a6 6 0 0 0 -6 6v28.71a6 6 0 0 0 6 6h3.57v146.72a104.976 104.976 0 0 0 -70.251 88.956c-.331 3.382-.5 6.826-.5 10.234a105.494 105.494 0 0 0 40.8 82.98 19.609 19.609 0 0 0 -2.212 1.877 19.337 19.337 0 0 0 13.673 33h105.58a19.315 19.315 0 0 0 11.256-35.022 105.5 105.5 0 0 0 40.614-82.835c0-3.408-.168-6.852-.5-10.221a103.486 103.486 0 0 0 -4.213-20.9v-108.309a35.465 35.465 0 0 0 -35.43-35.42h-30.607v-71.06h3.57a6 6 0 0 0 6-6v-28.71a6 6 0 0 0 -6-6h-5.49v-16.02a6 6 0 0 0 -6-6h-21.76v-19.63a23.256 23.256 0 0 0 -23.23-23.23h-231.55a23.256 23.256 0 0 0 -23.23 23.23v168.43h-27.11a17.454 17.454 0 0 0 -6.59 33.62v42.23h-56.94v-46.41a6 6 0 0 0 -12 0v242.26a6 6 0 0 0 6 6zm428.406-14.151a7.32 7.32 0 0 1 -5.2 2.151h-105.576a7.335 7.335 0 0 1 0-14.67h105.58a7.343 7.343 0 0 1 5.2 12.519zm34.674-103.709a93.388 93.388 0 0 1 -44.382 79.19h-96.946a93.388 93.388 0 0 1 -44.382-79.19c0-1 .041-2.016.074-3.025 6.152 1.363 10.009 4.828 14.614 8.989 6.6 5.96 14.073 12.716 28.742 12.716a6 6 0 0 0 0-12c-10.051 0-14.749-4.245-20.7-9.62-5.406-4.885-11.426-10.3-21.508-12.089a92.957 92.957 0 0 1 65.23-74.028 6 6 0 0 0 4.295-5.753v-151.1h14.53v230.948c-9.883 1.857-15.834 7.206-21.166 12.024-1.707 1.543-3.32 3-5.02 4.31a6 6 0 0 0 7.319 9.509c2.076-1.6 3.942-3.284 5.747-4.915 4.236-3.828 7.814-7.055 13.12-8.614v51.648a6 6 0 1 0 12 0v-52.335c7.138 1.075 11.263 4.781 16.256 9.294 6.6 5.963 14.073 12.721 28.744 12.721s22.136-6.754 28.731-12.713c4.607-4.163 8.466-7.63 14.625-8.992.037 1.005.077 2.019.077 3.025zm-58.75-162.85h30.61a23.452 23.452 0 0 1 23.43 23.42v82.646a105.344 105.344 0 0 0 -17.79-20.948v-48.458a18.9 18.9 0 0 0 -18.88-18.88h-17.37zm0 29.78h17.37a6.887 6.887 0 0 1 6.88 6.88v39.083a103.719 103.719 0 0 0 -24.25-12.083zm26.34 62.581a92.9 92.9 0 0 1 27.989 42.109 91.239 91.239 0 0 1 3.2 13.35c-10.093 1.79-16.117 7.206-21.526 12.093-5.946 5.373-10.643 9.617-20.686 9.617s-14.749-4.247-20.7-9.623c-5.893-5.326-12.5-11.273-24.3-12.482v-230.485h17.68v151.1a6 6 0 0 0 4.294 5.752 92.139 92.139 0 0 1 34.049 18.569zm-40.26-226.151v10.02h-18.87a6 6 0 0 0 0 12h30.36v16.71h-63.35v-16.71h14.49a6 6 0 0 0 0-12h-3v-10.02zm-281.77 148.8h27.97a5.466 5.466 0 0 1 5.46 5.46 5.472 5.472 0 0 1 -4.1 5.285 6.154 6.154 0 0 0 -.773-.055 5.991 5.991 0 0 0 -1.629.23h-26.928zm0 22.92h22.56v80.35h-22.56zm-42.957-21.328a5.386 5.386 0 0 1 3.847-1.592h27.11v10.92h-26.07a5.74 5.74 0 0 0 -2.416-.173 5.457 5.457 0 0 1 -2.471-9.155zm30.957 21.328v80.35h-21.7v-80.35zm-90.64 212.231 148.039.028a6 6 0 0 0 0-12l-148.039-.028v-147.301h56.94v61.67a6 6 0 0 0 12 0v-22.25h21.7v25.41a6 6 0 0 0 12 0v-25.41h22.56v44.94a28.206 28.206 0 0 1 -48.045 19.6 27.355 27.355 0 0 1 -8.215-19.6 6 6 0 0 0 -12 0 39.258 39.258 0 0 0 11.778 28.133 40.2 40.2 0 0 0 68.482-28.133v-84.371l61.35-.008v147.358h-28.009a6 6 0 0 0 0 12h28.011v18.511h-198.552z"/><path d="m79.261 142.935a17.43 17.43 0 0 0 -.345 13.484 17.833 17.833 0 0 0 22.917 10.163 17.6 17.6 0 0 0 9.928-9.351 17.4 17.4 0 0 0 .337-13.461 17.831 17.831 0 0 0 -22.924-10.17 17.6 17.6 0 0 0 -9.913 9.335zm10.957 4.894a5.685 5.685 0 0 1 3.208-3.008 5.861 5.861 0 0 1 2.083-.383 5.762 5.762 0 0 1 5.393 3.653v.011a5.483 5.483 0 0 1 -.106 4.244 5.688 5.688 0 0 1 -3.217 3.013 5.811 5.811 0 0 1 -7.477-3.27 5.509 5.509 0 0 1 .116-4.26z"/><path d="m158.371 192.454a16.41 16.41 0 0 0 5.8-1.062 16.224 16.224 0 0 0 9.445-21.011v-.012a16.445 16.445 0 0 0 -21.1-9.348 16.225 16.225 0 0 0 -9.127 8.615 16.027 16.027 0 0 0 -.309 12.393 16.385 16.385 0 0 0 15.291 10.425zm-4.028-17.937a4.3 4.3 0 0 1 2.416-2.274 4.464 4.464 0 0 1 1.578-.289 4.372 4.372 0 0 1 4.088 2.753 4.155 4.155 0 0 1 -.087 3.2 4.27 4.27 0 0 1 -2.407 2.258 4.394 4.394 0 0 1 -5.666-2.465 4.121 4.121 0 0 1 .078-3.183z"/><path d="m177.91 145.51a6 6 0 0 0 -6-6h-13.01a6 6 0 1 0 0 12h13.01a6 6 0 0 0 6-6z"/><path d="m70.9 122.91h15.72a6 6 0 0 0 0-12h-15.72a6 6 0 0 0 0 12z"/><path d="m87.03 180.78a6 6 0 0 0 0 12h5.81a6 6 0 0 0 0-12z"/><path d="m149.08 131.79v-11.74a6 6 0 1 0 -12 0v11.74a6 6 0 0 0 12 0z"/><path d="m51.46 336.42a6 6 0 0 0 -6 6v7.83a6 6 0 0 0 12 0v-7.83a6 6 0 0 0 -6-6z"/><path d="m51.46 365.16a6 6 0 0 0 -6 6v54.52a6 6 0 0 0 12 0v-54.52a6 6 0 0 0 -6-6z"/><path d="m321.466 334.264a6 6 0 0 0 -7.952 2.96 83.6 83.6 0 0 0 -4.224 11.346 6 6 0 1 0 11.52 3.36 71.753 71.753 0 0 1 3.616-9.714 6 6 0 0 0 -2.96-7.952z"/><path d="m356.679 300.79a6 6 0 0 0 -8.209-2.149 87.142 87.142 0 0 0 -25.242 22.365 6 6 0 1 0 9.564 7.247 75.042 75.042 0 0 1 21.738-19.253 6 6 0 0 0 2.149-8.21z"/></svg>