<?xml version="1.0"?>
<svg xmlns="http://www.w3.org/2000/svg" id="Layer_1" data-name="Layer 1" viewBox="0 0 512 512" width="512" height="512"><path d="M101.43,212.44H80.41a6,6,0,0,0,0,12h21.02a6,6,0,0,0,0-12Z"/><path d="M94.14,170.62a6,6,0,0,0-6-6H72.67a6,6,0,0,0,0,12H88.14A6,6,0,0,0,94.14,170.62Z"/><path d="M87.43,128.81h20.06a6,6,0,1,0,0-12H87.43a6,6,0,0,0,0,12Z"/><path d="M204.96,357.58h48.65a6,6,0,1,0,0-12H204.96a6,6,0,1,0,0,12Z"/><path d="M68.22,357.58h48.66a6,6,0,0,0,0-12H68.22a6,6,0,1,0,0,12Z"/><path d="M475.91,462.374V285.41a56.31,56.31,0,0,0-49.03-55.848V136.03a26.029,26.029,0,0,0-26-26H265.06a26.029,26.029,0,0,0-26,26V248.874l-73.31-27.843a6,6,0,0,0-8.13,5.609v43.238l-15.966-6.064-12.381-249.4a6,6,0,0,0-5.993-5.7H52.82a6,6,0,0,0-5.994,5.74l-8.843,203.3a6.06,6.06,0,0,0-.043.691c0,.045.006.088.007.132l-.25,5.752-8.678-3.293a6,6,0,0,0-8.129,5.609V438.36H15.21a6,6,0,0,0-6,6v27.25a6,6,0,0,0,6,6H311.37a6,6,0,0,0,6-6V444.36a6,6,0,0,0-6-6h-5.68V278.32a6,6,0,0,0-3.87-5.609l-50.76-19.279V136.03a14.015,14.015,0,0,1,14-14H400.88a14.015,14.015,0,0,1,14,14v93.261a56.4,56.4,0,0,0-51.63,56.119V462.389a36.087,36.087,0,0,0-26.88,34.9,6,6,0,0,0,6,6H496.79a6,6,0,0,0,6-6A36.084,36.084,0,0,0,475.91,462.374ZM169.62,275.337l124.07,47.122v115.9H259.61V384.67a6,6,0,0,0-6-6H204.96a6,6,0,0,0-6,6v53.69H169.62ZM247.61,390.67v47.69H210.96V390.67ZM58.565,20.71h59.006l1.965,39.58H56.844ZM49.7,224.44H59.38a6,6,0,0,0,0-12H50.225l3.638-83.63H63.49a6,6,0,0,0,0-12H54.385l1.937-44.52h63.81l4.586,92.33H106.24a6,6,0,0,0,0,12h19.073l4.1,82.545-79.9-30.345Zm-16.813,10.9,124.73,47.379v27.163L32.89,262.5Zm0,40,124.73,47.376V438.36H122.88V384.67a6,6,0,0,0-6-6H68.22a6,6,0,0,0-6,6v53.69H32.89ZM110.88,390.67v47.69H74.22V390.67Zm194.49,59.69v15.25H21.21V450.36Zm-11.68-167.9v27.164L169.62,262.5V235.337Zm81.56,2.951a44.38,44.38,0,0,1,44.33-44.33c.383,0,.774.009,1.148.018A44.319,44.319,0,0,1,463.91,285.41v1.75H375.25Zm0,13.75h88.66v7.65H375.25Zm0,19.65h88.66V461.18H375.25ZM349.119,491.29a24.142,24.142,0,0,1,20.93-17.985,22.5,22.5,0,0,1,2.431-.125h94.21c.4,0,.8.007,1.195.029l.05,0a24.079,24.079,0,0,1,22.1,18.078Z"/><path d="M393.46,352.97a6,6,0,0,0-6,6v5.83a6,6,0,0,0,12,0v-5.83A6,6,0,0,0,393.46,352.97Z"/><path d="M393.46,376.71a6,6,0,0,0-6,6v59.53a6,6,0,0,0,12,0V382.71A6,6,0,0,0,393.46,376.71Z"/></svg>
