<svg id="Layer_1" height="512" viewBox="0 0 512 512" width="512" xmlns="http://www.w3.org/2000/svg" data-name="Layer 1"><path d="m492.16 195.02a30.617 30.617 0 0 0 -30.6-30.6h-19.96v-105.907a20.437 20.437 0 0 0 15.53-19.8 20.441 20.441 0 0 0 -20.42-20.42h-69.02a20.443 20.443 0 0 0 -20.42 20.42 20.384 20.384 0 0 0 15.52 19.807v38.86h-56.04c-20.823 0-35.1 8.948-43.633 27.354a59.186 59.186 0 0 1 -14.745 19.677 61.438 61.438 0 0 1 -40.462 15.259h-6.84v-8.08a22.025 22.025 0 0 0 -22-22h-44.37a22.025 22.025 0 0 0 -22 22v120.468a111.549 111.549 0 1 0 125.39 76.992 141.35 141.35 0 0 1 52.765 19.468c11.226 6.967 24.085 11.533 39.311 13.957 13.981 2.229 28.543 2.415 41.094 2.415h76.61a32.217 32.217 0 0 0 32.18-32.18 31.892 31.892 0 0 0 -8.9-22.193 32.285 32.285 0 0 0 7.172-56.752 33.538 33.538 0 0 0 4.144-3.513 33.081 33.081 0 0 0 -3.666-49.964 30.592 30.592 0 0 0 13.36-25.268zm-130.435-150.371a8.321 8.321 0 0 1 -2.455-5.939 8.429 8.429 0 0 1 8.42-8.42h69.02a8.442 8.442 0 0 1 8.42 8.42 8.429 8.429 0 0 1 -8.42 8.42h-69.02a8.348 8.348 0 0 1 -5.965-2.481zm60.275 84.481h7.6v35.29h-54.81v-35.29h27.4a6 6 0 1 0 0-12h-27.4v-58h54.81v58h-7.6a6 6 0 0 0 0 12zm-290.54 352.58a99.615 99.615 0 1 1 0-199.23 98.687 98.687 0 0 1 59.872 20 99.736 99.736 0 0 1 32.278 41.727 99.666 99.666 0 0 1 -92.152 137.5zm330.1-268.09-38.72.12a6 6 0 1 0 0 12h36.21a21.105 21.105 0 1 1 0 42.21h-36.21a6 6 0 0 0 0 12h37.02a20.3 20.3 0 1 1 0 40.59h-53.38a6 6 0 0 0 0 12h41.39a20.175 20.175 0 1 1 0 40.35h-76.61c-12.091 0-26.089-.175-39.206-2.265-13.62-2.169-25.027-6.193-34.872-12.3a153.352 153.352 0 0 0 -63.911-22.009 111.754 111.754 0 0 0 -32.2-41.451v-68.865a6 6 0 0 0 -12 0v60.5a110.536 110.536 0 0 0 -57.61-16.021c-2.245 0-4.5.069-6.76.206v-119.095a10.012 10.012 0 0 1 10-10h44.37a10.011 10.011 0 0 1 10 10v52.41a6 6 0 0 0 12 0v-32.33h6.84a73.434 73.434 0 0 0 48.378-18.241 71.118 71.118 0 0 0 17.711-23.644c4.406-9.5 12.11-20.4 32.747-20.4h56.04v54.528a14.279 14.279 0 0 1 -10.436-12.232 6 6 0 1 0 -11.928 1.308 26.267 26.267 0 0 0 26.147 23.431h94.99a18.6 18.6 0 1 1 0 37.2z"/><path d="m279.968 151.393a6 6 0 0 0 -8.455.719 83.191 83.191 0 0 1 -37.759 25.435 6 6 0 1 0 3.732 11.406 95.183 95.183 0 0 0 43.2-29.1 6 6 0 0 0 -.718-8.46z"/><path d="m291.043 131.076a6 6 0 0 0 -7.967 2.924c-.71 1.531-1.479 3.061-2.288 4.547a6 6 0 1 0 10.543 5.732c.93-1.709 1.815-3.47 2.632-5.233a6 6 0 0 0 -2.92-7.97z"/><path d="m136.637 307.747a6 6 0 0 0 -10.354 0l-41 69.981a53.511 53.511 0 1 0 92.345 0zm24.172 126.379a41.512 41.512 0 0 1 -65.169-50.335l35.822-61.143 35.814 61.143a41.507 41.507 0 0 1 -6.467 50.335z"/><path d="m158.562 398.188a6 6 0 0 0 -7.065 4.7 20.424 20.424 0 0 1 -13.36 15.274 6 6 0 1 0 3.886 11.354 32.432 32.432 0 0 0 21.24-24.266 6 6 0 0 0 -4.701-7.062z"/></svg>