<svg id="Layer_1" height="512" viewBox="0 0 512 512" width="512" xmlns="http://www.w3.org/2000/svg" data-name="Layer 1"><path d="m103.93 430.73h75.59a6 6 0 0 0 5.809-7.5l-38.04-147.01a6 6 0 0 0 -5.809-4.5h-13.01v-110.89a74.855 74.855 0 0 1 74.77-74.77h55.19v27.161a37.228 37.228 0 0 0 5.42 45.972v25.651a71.307 71.307 0 0 0 -45.64 66.736v242.47a6 6 0 0 0 6 6h131.22a6 6 0 0 0 6-6v-242.47a71.143 71.143 0 0 0 -20.977-50.633 71.939 71.939 0 0 0 -24.663-16.11v-25.042a37.223 37.223 0 0 0 5.72-47.079v-9.764l71.581 9.5a17.69 17.69 0 0 0 2.529.171 18.49 18.49 0 0 0 2.4-36.818l-76.51-10.157v-.928a4.425 4.425 0 0 1 4.42-4.42h36.91a42.4 42.4 0 0 0 42.36-42.35 6 6 0 0 0 -6-6h-109.73a31.07 31.07 0 0 0 -31.04 31.03v31.08h-55.19a86.868 86.868 0 0 0 -86.77 86.77v110.89h-12.54a6 6 0 0 0 -6 6v147.01a6 6 0 0 0 6 6zm228.037-221.3a59.215 59.215 0 0 1 17.463 42.15v52.01h-30.04a6 6 0 0 0 0 12h30.04v121.12h-62.17v-121.12h9.74a6 6 0 0 0 0-12h-15.74a6 6 0 0 0 -6 6v133.12a6 6 0 0 0 6 6h68.17v39.34h-119.22v-236.47a59.593 59.593 0 0 1 101.757-42.147zm-56.117-28.09v-14.125a37.184 37.184 0 0 0 27.94.239v13.886a71.912 71.912 0 0 0 -27.94 0zm120.585-93.64a6.49 6.49 0 0 1 -.815 12.923 6.073 6.073 0 0 1 -.891-.058l-73.219-9.717v-13.095zm-126-44.717a19.056 19.056 0 0 1 19.04-19.03h103.125a30.408 30.408 0 0 1 -29.76 24.347h-36.91a16.439 16.439 0 0 0 -16.42 16.42v36.28a37.093 37.093 0 0 0 -39.08.195zm-.935 75.217a25.256 25.256 0 0 1 40.943-.4 5.905 5.905 0 0 0 .382.535 25.245 25.245 0 1 1 -41.325-.135zm-159.57 268.53h7.737a6 6 0 1 0 0-12h-7.737v-91.01h26.905l23.545 91.01h-20.713a6 6 0 0 0 0 12h23.818l8.284 32h-61.839z"/><path d="m253.46 262.97a6 6 0 0 0 -6 6v5.83a6 6 0 1 0 12 0v-5.83a6 6 0 0 0 -6-6z"/><path d="m253.46 286.71a6 6 0 0 0 -6 6v59.53a6 6 0 1 0 12 0v-59.53a6 6 0 0 0 -6-6z"/><path d="m290.13 148.85a16.05 16.05 0 1 0 -16.05-16.05 16.068 16.068 0 0 0 16.05 16.05zm0-20.1a4.05 4.05 0 1 1 -4.05 4.05 4.055 4.055 0 0 1 4.05-4.05z"/><path d="m290.43 74a6 6 0 0 0 -12 0v3.6a6 6 0 0 0 12 0z"/><path d="m284.43 64.33a6 6 0 0 0 6-6v-14.38h8.77a6 6 0 0 0 0-12h-9.73a11.048 11.048 0 0 0 -11.04 11.03v15.35a6 6 0 0 0 6 6z"/></svg>