<svg id="Layer_1" height="512" viewBox="0 0 512 512" width="512" xmlns="http://www.w3.org/2000/svg" data-name="Layer 1"><path d="m102.677 202.292c1.719 1.72 3.547 3.375 5.435 4.922a72.727 72.727 0 0 0 91.927 0h.005c1.884-1.544 3.71-3.2 5.429-4.918a72.7 72.7 0 0 0 12.534-85.987l-58.65-108.424a6 6 0 0 0 -5.276-3.145 6 6 0 0 0 -5.281 3.145 106.728 106.728 0 0 0 -10.479 73.228l3.02 14.028a13.317 13.317 0 0 1 -10.2 15.8 13.675 13.675 0 0 1 -2.827.31 13.369 13.369 0 0 1 -12.984-10.519l-1.35-6.29a6 6 0 0 0 -11.142-1.6l-12.7 23.463a72.7 72.7 0 0 0 12.535 85.985zm51.4 9.288a60.8 60.8 0 0 1 -35.58-11.522 35.624 35.624 0 0 1 71.151 0 60.787 60.787 0 0 1 -35.568 11.522zm-53.377-89.563 5.979-11.044a25.428 25.428 0 0 0 21.641 12.277 25.774 25.774 0 0 0 5.331-.574 25.314 25.314 0 0 0 19.425-30.059l-3.021-14.032a94.678 94.678 0 0 1 4.429-54.485l52.968 97.916a60.9 60.9 0 0 1 7.308 28.867 60.245 60.245 0 0 1 -14.512 39.376 47.624 47.624 0 0 0 -92.348.01 61.125 61.125 0 0 1 -7.2-68.252z"/><path d="m142.46 267.97a6 6 0 0 0 -6 6v2.83a6 6 0 0 0 12 0v-2.83a6 6 0 0 0 -6-6z"/><path d="m142.46 286.71a6 6 0 0 0 -6 6v20.53a6 6 0 0 0 12 0v-20.53a6 6 0 0 0 -6-6z"/><path d="m432.026 366.284-173.77-57.53a6 6 0 0 0 -7.886 5.7v49.468l-57.07-18.898v-109.144a6 6 0 0 0 -6-6h-66.45a6 6 0 0 0 -6 6v83.172l-31.1-10.3a6 6 0 0 0 -7.886 5.7v186.808a6 6 0 0 0 6 6h348.276a6 6 0 0 0 6-6v-129.28a6 6 0 0 0 -4.114-5.696zm-305.176-124.404h54.45v9.22h-54.45zm0 21.22h54.45v77.951l-54.45-18.026zm123.52 232.16h-40.04v-71.66a6 6 0 0 0 -6-6h-38.225a6 6 0 0 0 0 12h32.225v65.66h-64.45v-65.66h8.58a6 6 0 1 0 0-12h-14.58a6 6 0 0 0 -6 6v71.66h-34.02v-142.5l162.51 53.8zm0-101.341-162.51-53.8v-17.363l162.51 53.8zm122.47 101.341h-64.44v-65.66h64.44zm51.3-101.587-108.215-35.826a6 6 0 1 0 -3.772 11.391l111.987 37.076v88.946h-39.3v-71.66a6 6 0 0 0 -6-6h-76.44a6 6 0 0 0 -6 6v71.66h-34.03v-142.5l31.17 10.319a6 6 0 1 0 3.772-11.391l-34.942-11.571v-17.36l161.77 53.557z"/></svg>