<svg id="Layer_1" height="512" viewBox="0 0 512 512" width="512" xmlns="http://www.w3.org/2000/svg" data-name="Layer 1"><path d="m115.683 229.627a6 6 0 0 0 -8.485 8.486l12.17 12.17a6 6 0 1 0 8.485-8.486z"/><path d="m135.483 209.827a6 6 0 0 0 -8.483 8.485l12.17 12.171a6 6 0 0 0 8.483-8.483z"/><path d="m155.282 190.027a6 6 0 0 0 -8.484 8.486l12.17 12.17a6 6 0 0 0 8.484-8.486z"/><path d="m250.357 135.607-27.849 27.84a6 6 0 1 0 8.484 8.486l27.85-27.84a6 6 0 1 0 -8.485-8.486z"/><path d="m275.22 118.13a17.73 17.73 0 0 0 -12.622 5.227 6 6 0 1 0 8.484 8.486 5.814 5.814 0 0 1 4.138-1.713 6 6 0 0 0 0-12z"/><path d="m499.5 52.7h-113.85a46.327 46.327 0 0 0 -32.532 13.477l-45.668 45.668-4.05-4.045a39.848 39.848 0 0 0 -56.355 0l-37.345 37.349-16.138-6.149a45.8 45.8 0 0 0 -43.606 5.934l-64.039 47.066a45.773 45.773 0 0 0 -14.962 55.362l10.845 25.032-20.444 20.454a6 6 0 0 0 0 8.485l18.382 18.382-15.471 15.473a26.16 26.16 0 0 0 -3.375 32.785l-52.634 52.634a6 6 0 0 0 0 8.486l28.45 28.449a6 6 0 0 0 8.484 0l52.968-52.967a26.023 26.023 0 0 0 31.153-4.332l15.477-15.477 13.437 13.434a6 6 0 0 0 8.485 0l209.3-209.3a6 6 0 0 0 0-8.485l-31.8-31.805 33.959-33.95a34.237 34.237 0 0 1 24.039-9.96h97.29a6 6 0 0 0 6-6v-40a6 6 0 0 0 -6-6zm-458.55 392.114-19.965-19.964 48.005-48 19.964 19.96zm187.989-125.808-28.782-28.775-2.557-47.354 31.347-31.345a53.982 53.982 0 0 1 76.366 0l15.554 15.547zm134.346-134.346-33.936 33.94-15.556-15.548a65.98 65.98 0 0 0 -93.335 0l-60.375 60.369a6 6 0 1 0 8.484 8.486l17.627-17.626 2.105 38.9a6 6 0 0 0 1.749 3.919l30.406 30.4-18.384 18.375-53.744-53.735 5.907-5.906a6 6 0 1 0 -8.484-8.486l-10.149 10.152a6 6 0 0 0 0 8.486l57.987 57.977-31.117 31.112-44.97-44.975a6 6 0 1 0 -8.484 8.486l27.3 27.3-15.491 15.474a14.077 14.077 0 0 1 -19.351.551c-.06-.053-.12-.1-.182-.156-.147-.122-.285-.264-.419-.4l-28.12-28.12a14.133 14.133 0 0 1 0-19.963l15.478-15.469 4.119 4.119a6 6 0 0 0 8.486-8.486l-26.75-26.749 19.089-19.1a6 6 0 0 0 1.262-6.628l-12.47-28.77a33.832 33.832 0 0 1 11.058-40.92l64.04-47.069a33.856 33.856 0 0 1 32.228-4.386l19.761 7.53a6 6 0 0 0 6.38-1.364l40.1-40.1a27.847 27.847 0 0 1 39.385 0zm130.215-91.96h-91.29a46.312 46.312 0 0 0 -32.522 13.477l-33.959 33.95-19.794-19.8 45.665-45.664a34.248 34.248 0 0 1 24.05-9.963h107.85z"/></svg>