<svg id="Layer_1" height="512" viewBox="0 0 512 512" width="512" xmlns="http://www.w3.org/2000/svg" data-name="Layer 1"><path d="m182.46 192.71a6 6 0 0 0 -6 6v59.53a6 6 0 0 0 12 0v-59.53a6 6 0 0 0 -6-6z"/><path d="m182.46 168.97a6 6 0 0 0 -6 6v5.83a6 6 0 0 0 12 0v-5.83a6 6 0 0 0 -6-6z"/><path d="m380.11 274.544v-90.189a54.25 54.25 0 0 0 -50.36-53.975v-72.22h3a21 21 0 0 0 0-42h-153.91a21 21 0 1 0 0 42h3v72.251a54.252 54.252 0 0 0 -49.95 53.949v90.183a22.014 22.014 0 0 0 -19.88 21.9 22.028 22.028 0 0 0 19.88 21.9v91.78a54.3 54.3 0 0 0 31.96 49.374v30.35a6 6 0 0 0 6 6h171.89a6 6 0 0 0 6-6v-30.295a54.717 54.717 0 0 0 32.37-49.442v-91.773a22 22 0 0 0 0-43.793zm-201.27-228.384a9 9 0 0 1 0-18h153.91a9 9 0 1 1 0 18zm109.91 27h-65.91a18.021 18.021 0 0 0 -18 18v39.07h-11v-72.07h123.91v72.07h-11v-39.07a18.021 18.021 0 0 0 -18-18zm-19.75 28.68h-26a6 6 0 0 0 -6 6v22.39h-20.16v-39.07a6.007 6.007 0 0 1 6-6h65.91a6.007 6.007 0 0 1 6 6v39.07h-19.75v-22.39a6 6 0 0 0 -6-6zm-6 12v16.39h-14v-16.39zm105.11 296.222a42.492 42.492 0 0 1 -42.55 42.188h-114.72a6 6 0 0 0 0 12h114.72a54.848 54.848 0 0 0 10.18-.959v20.549h-159.89v-20.566a54 54 0 0 0 10.18.976 6 6 0 0 0 0-12 42.158 42.158 0 0 1 -42.14-42.14v-91.67h224.22zm16.947-106.544a9.929 9.929 0 0 1 -7.067 2.922h-243.98a10.011 10.011 0 0 1 -10-10 10.012 10.012 0 0 1 10-10h163.657a6 6 0 0 0 0-12h-153.777v-90.076a42.232 42.232 0 0 1 42.14-42.134h139.936a42.232 42.232 0 0 1 42.144 42.13v90.08h-45.777a6 6 0 0 0 0 12h55.657a10 10 0 0 1 7.067 17.078z"/></svg>