<?xml version="1.0"?>
<svg xmlns="http://www.w3.org/2000/svg" id="Layer_1" data-name="Layer 1" viewBox="0 0 512 512" width="512" height="512"><path d="M245.47,394.47h21.06a6,6,0,0,0,6-6V358.23a6,6,0,0,0-6-6H245.47a6,6,0,0,0-6,6v30.24A6,6,0,0,0,245.47,394.47Zm6-30.24h9.06v18.24h-9.06Z"/><path d="M193.62,358.23v30.24a6,6,0,0,0,6,6h21.07a6,6,0,0,0,6-6V358.23a6,6,0,0,0-6-6H199.62A6,6,0,0,0,193.62,358.23Zm12,6h9.07v18.24h-9.07Z"/><path d="M291.31,394.47h21.07a6,6,0,0,0,6-6V358.23a6,6,0,0,0-6-6H291.31a6,6,0,0,0-6,6v30.24A6,6,0,0,0,291.31,394.47Zm6-30.24h9.07v18.24h-9.07Z"/><path d="M261.878,152.108a6,6,0,0,0-11.756,0L226.134,269.4a31.27,31.27,0,1,0,59.73-.007ZM256,183.255l13.756,67.261a31.292,31.292,0,0,0-27.511,0Zm0,114.615a19.27,19.27,0,1,1,18.314-25.255l0,.014A19.263,19.263,0,0,1,256,297.87Z"/><path d="M189.842,139.934a147.718,147.718,0,0,0-55.261,59.838,6,6,0,1,0,10.718,5.4,135.723,135.723,0,0,1,50.779-54.981,6,6,0,0,0-6.236-10.253Z"/><path d="M239.591,126.986a6,6,0,0,0-7.215-4.467,146.735,146.735,0,0,0-23.515,7.676,6,6,0,1,0,4.678,11.051,134.679,134.679,0,0,1,21.585-7.046A6,6,0,0,0,239.591,126.986Z"/><path d="M256,27.02A228.981,228.981,0,0,0,94.086,417.914,228.981,228.981,0,0,0,417.914,94.086,227.481,227.481,0,0,0,256,27.02ZM409.429,409.429A216.981,216.981,0,0,1,102.571,102.571,216.981,216.981,0,0,1,409.429,409.429Z"/><path d="M256,57.63A198.392,198.392,0,0,0,57.63,255.66V256c0,109.382,88.988,198.37,198.37,198.37S454.37,365.382,454.37,256v-.35a196.273,196.273,0,0,0-21.122-88.806,6,6,0,0,0-10.716,5.4A184.052,184.052,0,0,1,442.26,249.66H422.912a165.712,165.712,0,0,0-44.65-107.777l13.517-13.517A187.743,187.743,0,0,1,410.4,151.6a6,6,0,1,0,9.933-6.732,199.765,199.765,0,0,0-24.245-29.3A197.022,197.022,0,0,0,256,57.63Zm-6,12.106V88.758A165.712,165.712,0,0,0,142.223,133.4L128.715,119.89A184.934,184.934,0,0,1,250,69.736ZM422.913,261.66h19.363c-3,100.156-85.405,180.71-186.276,180.71S72.727,361.816,69.724,261.66H89.087A167.011,167.011,0,0,0,371.043,376.74,165.384,165.384,0,0,0,422.913,261.66Zm-11.883-6a153.475,153.475,0,0,1-43.6,107.756l-24.716-31.789a6,6,0,0,0-4.737-2.317H223a6,6,0,1,0,0,12H335.045l23.67,30.444a154.954,154.954,0,0,1-205.064.325L177,341.31h21.334a6,6,0,1,0,0-12H174.02a6,6,0,0,0-4.78,2.373L144.9,363.761a153.408,153.408,0,0,1-43.929-108.1,155.795,155.795,0,0,1,4.168-35.856,6,6,0,1,0-11.677-2.765,167.443,167.443,0,0,0-4.372,32.621H69.746a184.91,184.91,0,0,1,50.473-121.295l13.519,13.518A166.081,166.081,0,0,0,100.9,193.556a6,6,0,1,0,11.139,4.465A155.054,155.054,0,0,1,411.03,255.66ZM369.777,133.4A165.712,165.712,0,0,0,262,88.758V69.735a184.881,184.881,0,0,1,121.285,50.154Z"/></svg>
