<svg id="Layer_1" height="512" viewBox="0 0 512 512" width="512" xmlns="http://www.w3.org/2000/svg" data-name="Layer 1"><path d="m107.1 353.555a49.37 49.37 0 0 1 -34.59-46.825v-19.11a6 6 0 1 0 -12 0v19.11a60.689 60.689 0 0 0 43.066 58.295 6 6 0 0 0 3.528-11.47z"/><path d="m66.51 275.33a6 6 0 0 0 6-6v-6.85a6 6 0 1 0 -12 0v6.85a6 6 0 0 0 6 6z"/><path d="m178.93 391.52a20.09 20.09 0 1 0 -20.09 20.08 20.113 20.113 0 0 0 20.09-20.08zm-28.18 0a8.09 8.09 0 1 1 8.09 8.08 8.1 8.1 0 0 1 -8.09-8.08z"/><path d="m353.16 371.43a20.085 20.085 0 1 0 20.09 20.09 20.113 20.113 0 0 0 -20.09-20.09zm0 28.17a8.085 8.085 0 1 1 8.09-8.08 8.094 8.094 0 0 1 -8.09 8.08z"/><path d="m497 430.52h-124.245a43.7 43.7 0 0 0 24.075-39c0-.522-.019-1.041-.038-1.561a83.583 83.583 0 0 0 77.2-83.229v-98.13a21.03 21.03 0 0 0 15-20.116v-10a21.023 21.023 0 0 0 -21-21h-18.358l-44.264-96.8a10 10 0 0 0 -15.326-3.677l-64.65 51.437-72.194-77.483a10 10 0 0 0 -14.848.23l-72.532 82.962-53.969-19.715a9.965 9.965 0 0 0 -11.851 4.033l-37.516 59.009h-18.474a21.023 21.023 0 0 0 -21 21v10a21.03 21.03 0 0 0 15 20.116v98.134a83.583 83.583 0 0 0 77.2 83.229c-.019.52-.038 1.04-.038 1.561a43.7 43.7 0 0 0 24.075 39h-124.247a6 6 0 0 0 -6 6v41.71a6 6 0 0 0 6 6h482a6 6 0 0 0 6-6v-41.71a6 6 0 0 0 -6-6zm-143.84-7.34a31.665 31.665 0 1 1 31.072-37.8v.016a31.677 31.677 0 0 1 -31.072 37.784zm-150.681-32.96h107.042c-.012.433-.031.866-.031 1.3a43.7 43.7 0 0 0 24.075 39h-155.13a43.7 43.7 0 0 0 24.075-39c0-.434-.019-.867-.031-1.3zm-93.219-283.953 53.719 19.624a10.066 10.066 0 0 0 10.968-2.8l71.981-82.331 71.948 77.219a10.051 10.051 0 0 0 13.54 1.008l64.1-51 40.923 89.493h-359.739zm-74.25 82.213v-10a9.01 9.01 0 0 1 9-9h423.98a9.01 9.01 0 0 1 9 9v10a9.01 9.01 0 0 1 -9 9h-340.323a6 6 0 0 0 0 12h334.323v25h-411.98v-25h40.323a6 6 0 0 0 0-12h-46.323a9.01 9.01 0 0 1 -9-9zm15 118.25v-60.25h411.98v60.25a71.574 71.574 0 0 1 -67.279 71.356 43.669 43.669 0 0 0 -83.146.134h-111.132a43.667 43.667 0 0 0 -83.143-.134 71.573 71.573 0 0 1 -67.28-71.356zm77.16 84.79a31.672 31.672 0 0 1 62.742-6.144v.017a31.671 31.671 0 1 1 -62.746 6.127zm363.83 80.71h-470v-29.71h470z"/><path d="m245.3 75.229a6 6 0 0 0 -8.466.576l-5.68 6.51a6 6 0 0 0 9.042 7.89l5.68-6.51a6 6 0 0 0 -.576-8.466z"/><path d="m227.52 95.584a6 6 0 0 0 -8.466.566l-28.81 32.94a6 6 0 1 0 9.032 7.9l28.81-32.94a6 6 0 0 0 -.566-8.466z"/></svg>