<?xml version="1.0"?>
<svg xmlns="http://www.w3.org/2000/svg" id="Layer_1" data-name="Layer 1" viewBox="0 0 512 512" width="512" height="512"><path d="M71,147.05a6,6,0,0,0-6,6v5.83a6,6,0,0,0,12,0v-5.83A6,6,0,0,0,71,147.05Z"/><path d="M71,170.8a6,6,0,0,0-6,6v59.52a6,6,0,0,0,12,0V176.8A6,6,0,0,0,71,170.8Z"/><path d="M496.99,325.97H442.16V304.644a74.415,74.415,0,0,0,53.53-71.1V183.93a74.082,74.082,0,0,0-73.906-74A20.315,20.315,0,0,0,401.86,93.54a20.325,20.325,0,0,0-19.915,16.39h-14.7V84.33a6,6,0,0,0-6-6H262.75a6,6,0,0,0-6,6v25.6H130.064A20.316,20.316,0,0,0,110.14,93.54a20.325,20.325,0,0,0-19.915,16.392,74.083,74.083,0,0,0-73.915,74v49.61a74.414,74.414,0,0,0,53.53,71.1V325.97H15.01a6,6,0,0,0-6,6V382.7a6,6,0,0,0,6,6H30.2c-.012.433-.031.866-.031,1.3a43.67,43.67,0,1,0,87.34,0c0-.434-.019-.867-.031-1.3H130.2c-.012.433-.031.866-.031,1.3a43.67,43.67,0,1,0,87.34,0c0-.434-.019-.867-.031-1.3H249.99v21a6,6,0,0,0,6,6H356.01a6,6,0,0,0,6-6v-21h32.511c-.012.433-.031.866-.031,1.3a43.67,43.67,0,1,0,87.34,0c0-.434-.019-.867-.031-1.3H496.99a6,6,0,0,0,6-6V331.97A6,6,0,0,0,496.99,325.97ZM422.16,121.942a62.065,62.065,0,0,1,61.53,61.988v49.61a61.9,61.9,0,0,1-61.53,61.988Zm-.634,185.6h.164a74.6,74.6,0,0,0,8.47-.493V325.97h-56.6V307.54h8.627a20.268,20.268,0,0,0,19.673,15.35A20.315,20.315,0,0,0,421.526,307.54ZM268.75,90.33h86.49v19.6H268.75Zm-33.37,31.6H381.56V150a6,6,0,0,0,12,0V113.83a8.3,8.3,0,0,1,14.176-5.849,8.2,8.2,0,0,1,2.424,5.849V302.6a8.3,8.3,0,0,1-14.176,5.85,8.2,8.2,0,0,1-2.424-5.85V171a6,6,0,1,0-12,0V295.54H235.38ZM361.56,307.54v18.43H150.44V307.54ZM189.7,121.93h33.68v29.84H189.7Zm0,41.84h33.68v21.92H189.7Zm0,33.92h33.68v21.92H189.7Zm0,33.92h33.68v21.92H189.7Zm0,33.92h33.68v30.01H189.7Zm-59.26-143.6H177.7V295.54H130.44Zm-.634,185.61h8.634v18.43H81.84V307.047a74.614,74.614,0,0,0,8.47.493h.157a20.268,20.268,0,0,0,19.673,15.35A20.315,20.315,0,0,0,129.806,307.54Zm-101.5-74V183.93a62.065,62.065,0,0,1,61.53-61.988V247.5a6,6,0,0,0,12,0V113.83a8.3,8.3,0,0,1,14.176-5.849,8.2,8.2,0,0,1,2.424,5.849V302.6a8.3,8.3,0,0,1-14.176,5.849,8.2,8.2,0,0,1-2.424-5.849V269.725a6,6,0,0,0-12,0v25.8A61.907,61.907,0,0,1,28.31,233.54ZM73.84,421.67a31.67,31.67,0,1,1,31.073-37.814l0,.016a31.691,31.691,0,0,1-31.076,37.8Zm100,0a31.67,31.67,0,1,1,31.073-37.814l0,.016a31.691,31.691,0,0,1-31.076,37.8ZM350.01,403.7H261.99v-15h88.02Zm88.15,17.97a31.67,31.67,0,1,1,31.073-37.814l0,.016a31.691,31.691,0,0,1-31.076,37.8Zm52.83-44.97H479.753a43.667,43.667,0,0,0-83.187,0H215.433a43.666,43.666,0,0,0-83.185,0H115.433a43.666,43.666,0,0,0-83.185,0H21.01V337.97H490.99Z"/><path d="M73.84,369.91A20.09,20.09,0,1,0,93.93,390,20.112,20.112,0,0,0,73.84,369.91Zm0,28.18A8.09,8.09,0,1,1,81.93,390,8.1,8.1,0,0,1,73.84,398.09Z"/><path d="M173.84,369.91A20.09,20.09,0,1,0,193.93,390,20.112,20.112,0,0,0,173.84,369.91Zm0,28.18a8.09,8.09,0,1,1,8.09-8.09A8.1,8.1,0,0,1,173.84,398.09Z"/><path d="M438.16,369.91A20.09,20.09,0,1,0,458.25,390,20.112,20.112,0,0,0,438.16,369.91Zm0,28.18a8.09,8.09,0,1,1,8.09-8.09A8.1,8.1,0,0,1,438.16,398.09Z"/></svg>
