<?xml version="1.0"?>
<svg xmlns="http://www.w3.org/2000/svg" id="Layer_1" data-name="Layer 1" viewBox="0 0 512 512" width="512" height="512"><path d="M443.79,145H341.59a26.01,26.01,0,0,0-11.636,2.755L296.93,164.287V132.08h72.01a6,6,0,0,0,3.128-.88l67.24-41.08a6,6,0,0,0-6.256-10.24l-65.8,40.2H296.93v-19a10.011,10.011,0,0,0-10-10H216.8a10.011,10.011,0,0,0-10,10v30.163L160.963,85.4a6,6,0,0,0-4.242-1.758h0a6,6,0,0,0-4.242,1.757L140.115,97.76l-71-71A6,6,0,0,0,64.87,25h-46a6,6,0,0,0,0,12H62.385l69.245,69.245-11.683,11.682a6,6,0,0,0,0,8.486l56.17,56.169A78.719,78.719,0,0,0,144.13,240.7a20.447,20.447,0,0,0-.17,39.346V446.06h-8.79a6,6,0,0,0-6,6V481a6,6,0,0,0,6,6h233.4a6,6,0,0,0,6-6V452.06a6,6,0,0,0-6-6h-8.79V280.041a20.447,20.447,0,0,0-.188-39.351,78.511,78.511,0,0,0-51.609-68.517l27.356-13.694A13.954,13.954,0,0,1,341.59,157h46.86V288.41a55.34,55.34,0,1,0,110.68,0V200.34A55.4,55.4,0,0,0,443.79,145ZM218.8,103.08h66.13v64.564c-1.138-.05-2.277-.084-3.41-.084l-62.72.084Zm-86.125,19.09L156.72,98.126l50.08,50.089V169.1a77.077,77.077,0,0,0-20.173,7.02Zm229.9,335.89V475H141.17V458.06H293a6,6,0,0,0,0-12H155.96V280.86H347.78v165.2H317.667a6,6,0,0,0,0,12ZM347.512,239.92H207.26a6,6,0,0,0,0,12H354.1a8.47,8.47,0,0,1,0,16.94H149.64a8.47,8.47,0,1,1,0-16.94h34.027a6,6,0,0,0,0-12H156.234a66.6,66.6,0,0,1,32.377-51.213,65.428,65.428,0,0,1,24.959-8.587h76.587A66.385,66.385,0,0,1,347.512,239.92ZM487.13,288.41a43.34,43.34,0,1,1-86.68,0V157h43.34a43.389,43.389,0,0,1,43.34,43.34Z"/><path d="M179.46,294.97a6,6,0,0,0-6,6v5.83a6,6,0,0,0,12,0v-5.83A6,6,0,0,0,179.46,294.97Z"/><path d="M179.46,317.71a6,6,0,0,0-6,6v60.53a6,6,0,0,0,12,0V323.71A6,6,0,0,0,179.46,317.71Z"/><path d="M257.047,294.637a6,6,0,0,0-10.354,0L208.2,360.349a50.6,50.6,0,1,0,87.335,0Zm22.12,118.58a38.6,38.6,0,0,1-60.61-46.8l33.313-56.872,33.312,56.87A38.624,38.624,0,0,1,279.167,413.217Z"/><path d="M278.946,385.851a6,6,0,0,0-7.075,4.683,18.85,18.85,0,0,1-5.161,9.6,18.543,18.543,0,0,1-7.161,4.481,6,6,0,1,0,3.9,11.348,30.442,30.442,0,0,0,11.752-7.351,30.8,30.8,0,0,0,8.426-15.687A6,6,0,0,0,278.946,385.851Z"/></svg>
