<?xml version="1.0"?>
<svg xmlns="http://www.w3.org/2000/svg" id="Layer_1" data-name="Layer 1" viewBox="0 0 512 512" width="512" height="512"><path d="M258.23,57.41H96.2a6,6,0,0,0-6,6v76.36a6,6,0,0,0,6,6h99.755a6,6,0,0,0,0-12H102.2V69.41H252.23v64.36H225.667a6,6,0,0,0,0,12H258.23a6,6,0,0,0,6-6V63.41A6,6,0,0,0,258.23,57.41Z"/><path d="M92.46,218.97a6,6,0,0,0-6,6v7.83a6,6,0,0,0,12,0v-7.83A6,6,0,0,0,92.46,218.97Z"/><path d="M92.46,244.71a6,6,0,0,0-6,6V398.24a6,6,0,0,0,12,0V250.71A6,6,0,0,0,92.46,244.71Z"/><path d="M481,88.9H462.62V61.87a11.961,11.961,0,0,1,3.513-8.5l18.42-18.42a6,6,0,0,0-8.486-8.486L457.642,44.894A23.887,23.887,0,0,0,450.62,61.87V88.9H434.75a21.264,21.264,0,0,0-21.24,21.24V124.8l-5.143,2.308a23.924,23.924,0,0,0-13.913,18.244l-5.405,34a23.9,23.9,0,0,0,14.915,25.966L413.3,209v10.78a6,6,0,0,0,6,6h9.41v32.17a6,6,0,0,0,6,6h12.35V445.18a28.53,28.53,0,1,1-57.06,0V368.71a40.045,40.045,0,0,0-40-40h-9.79V292a6,6,0,0,0-6-6H303.35V64.29a46.051,46.051,0,0,0-46-46H97.08a46.052,46.052,0,0,0-46,46v374.3H49.3a24.323,24.323,0,0,0-24.3,24.3V487.71a6,6,0,0,0,6,6H323.43a6,6,0,0,0,6-6V462.886a24.323,24.323,0,0,0-24.3-24.3H303.35V394h30.86a6,6,0,0,0,6-6V340.71H350a28.032,28.032,0,0,1,28,28v76.47a40.53,40.53,0,0,0,81.06,0V263.95h12.53a6,6,0,0,0,6-6V225.78H481a6,6,0,0,0,6-6V94.9A6,6,0,0,0,481,88.9ZM63.08,64.29a34.039,34.039,0,0,1,34-34H257.35a34.038,34.038,0,0,1,34,34v108.6H63.08Zm242.054,386.3a12.31,12.31,0,0,1,12.3,12.3V481.71H37V462.886a12.31,12.31,0,0,1,12.3-12.3H92.46a6,6,0,0,0,0-12H63.08V184.89H291.35v253.7H121.667a6,6,0,1,0,0,12ZM328.21,382H303.35V298h24.86ZM465.59,251.95H440.71V225.78h24.88ZM475,187.13H447.37V148.94a21.044,21.044,0,0,1,21.02-21.02H475Zm0-71.21h-6.61a33.057,33.057,0,0,0-33.02,33.02v44.19a6,6,0,0,0,6,6H475v14.65H425.3v-8.86a6,6,0,0,0-3.8-5.58l-13.13-5.19a11.949,11.949,0,0,1-7.469-12.958l5.4-33.989a11.984,11.984,0,0,1,6.966-9.149l8.69-3.9a6,6,0,0,0,3.544-5.474V110.14a9.25,9.25,0,0,1,9.24-9.24H475Z"/><path d="M177.21,398.712a53.094,53.094,0,0,0,45.817-79.925l-40.64-69.37a6,6,0,0,0-10.354,0L131.4,318.791a53.086,53.086,0,0,0,45.809,79.921Zm-35.453-73.86,35.453-60.531,35.463,60.531a41.1,41.1,0,1,1-70.916,0Z"/><path d="M187.379,377.352a5.962,5.962,0,0,0,1.959-.331,32.185,32.185,0,0,0,21.075-24.09,6,6,0,0,0-11.766-2.362,20.183,20.183,0,0,1-13.226,15.11,6,6,0,0,0,1.958,11.673Z"/></svg>
