<?xml version="1.0"?>
<svg xmlns="http://www.w3.org/2000/svg" id="Layer_1" data-name="Layer 1" viewBox="0 0 512 512" width="512" height="512"><path d="M156.48,313.18h6.24a6,6,0,0,0,0-12h-6.24a6,6,0,1,0,0,12Z"/><path d="M180.69,312.22h95.85a6,6,0,0,0,0-12H180.69a6,6,0,0,0,0,12Z"/><path d="M482.75,208.06H460.24a17.555,17.555,0,0,0-17.54,17.53v.21H396.95a6,6,0,0,0-6,6v9.77H329.34V212.56a6,6,0,0,0-6-6h-42.5V177.08h51.11a19.792,19.792,0,0,0,19.79-19.79,19.813,19.813,0,0,0-19.79-19.79H180.05a19.79,19.79,0,0,0,0,39.58h51.11v29.48h-42.5a6,6,0,0,0-6,6v29.01H121.05V231.8a6,6,0,0,0-6-6H69.3v-2.13a15.632,15.632,0,0,0-15.62-15.61H27.33a15.632,15.632,0,0,0-15.62,15.61V358.88A15.638,15.638,0,0,0,27.33,374.5H53.68A15.638,15.638,0,0,0,69.3,358.88v-2.12h45.75a6,6,0,0,0,6-6v-9.77h269.9v9.77a6,6,0,0,0,6,6H442.7v.2a17.56,17.56,0,0,0,17.54,17.54h22.51a17.56,17.56,0,0,0,17.54-17.54V225.59A17.555,17.555,0,0,0,482.75,208.06ZM57.3,358.88a3.624,3.624,0,0,1-3.62,3.62H27.33a3.624,3.624,0,0,1-3.62-3.62V323.1H57.3Zm0-47.78H23.71V271.46H57.3Zm0-51.64H23.71V223.67a3.62,3.62,0,0,1,3.62-3.61H53.68a3.62,3.62,0,0,1,3.62,3.61Zm241.9-40.9h18.14v23.01H299.2Zm-12,0v23.01H262.471V218.56Zm-44.04-12V177.08h25.68v29.48Zm-63.11-41.48a7.789,7.789,0,0,1-5.5-13.306,7.707,7.707,0,0,1,5.5-2.274h151.9a7.8,7.8,0,0,1,7.79,7.79,7.793,7.793,0,0,1-7.79,7.79Zm44.75,53.48h25.67v23.01H224.8Zm-30.14,0H212.8v23.01H194.66ZM390.95,328.99H121.05V288a6,6,0,0,0-12,0v56.76H69.3V237.8h39.75v24.867a6,6,0,0,0,12,0v-9.1h269.9Zm51.75,15.77H402.95V237.8H442.7Zm45.59,12.2a5.546,5.546,0,0,1-5.54,5.54H460.24a5.547,5.547,0,0,1-5.54-5.54V323.1h33.59Zm0-45.86H454.7V271.46h33.59Zm0-51.64H454.7V225.59a5.542,5.542,0,0,1,5.54-5.53h22.51a5.541,5.541,0,0,1,5.54,5.53Z"/></svg>
