<svg id="Layer_1" height="512" viewBox="0 0 512 512" width="512" xmlns="http://www.w3.org/2000/svg" data-name="Layer 1"><path d="m297.84 189.34c0-47.448-37.664-86.05-83.96-86.05s-83.96 38.6-83.96 86.05 37.664 86.06 83.96 86.06 83.96-38.607 83.96-86.06zm-83.96 74.06c-39.679 0-71.96-33.223-71.96-74.06s32.281-74.05 71.96-74.05 71.96 33.219 71.96 74.05-32.281 74.06-71.96 74.06z"/><path d="m169.186 49.98a6 6 0 0 0 -7.806-3.326 166.2 166.2 0 0 0 -55.9 37.132 177.376 177.376 0 0 0 -40.988 64.2 6 6 0 1 0 11.258 4.156 165.461 165.461 0 0 1 38.23-59.882 154.265 154.265 0 0 1 51.881-34.47 6 6 0 0 0 3.325-7.81z"/><path d="m191.3 49.911a6.028 6.028 0 0 0 1.209-.123 156.733 156.733 0 0 1 31.371-3.148 6 6 0 0 0 0-12 168.723 168.723 0 0 0 -33.773 3.392 6 6 0 0 0 1.2 11.879z"/><path d="m396.244 253.931a184.9 184.9 0 0 0 6.743-62.782 198.249 198.249 0 0 0 -57.24-126.769 186.187 186.187 0 0 0 -263.727.005 198.148 198.148 0 0 0 -57.237 126.763 186.581 186.581 0 0 0 11.281 76.879c8.929 24.465 23.464 47.535 43.2 68.57l130.24 138.72a6 6 0 0 0 8.749 0l33.347-35.517a126.733 126.733 0 1 0 144.644-185.869zm-35.354 236.429a114.663 114.663 0 0 1 -114.72-114.72 6 6 0 0 0 -12 0 125.253 125.253 0 0 0 11.543 52.889l-31.834 33.914-125.864-134.058c-18.621-19.846-32.308-41.538-40.679-64.472a174.659 174.659 0 0 1 -10.579-71.964 186.148 186.148 0 0 1 53.764-119.094 174.186 174.186 0 0 1 246.725-.005 186.248 186.248 0 0 1 53.767 119.1 173.015 173.015 0 0 1 -6.445 59.184 126.784 126.784 0 0 0 -148.482 102.435 6 6 0 1 0 11.819 2.077 114.734 114.734 0 1 1 112.985 134.714z"/><path d="m366.067 297.607a6 6 0 0 0 -10.354 0l-43.452 74.183a56.371 56.371 0 0 0 88.49 68.344 56.386 56.386 0 0 0 8.774-68.346zm26.2 134.039a44.364 44.364 0 0 1 -69.652-53.793l38.275-65.343 38.283 65.342a44.383 44.383 0 0 1 -6.904 53.794z"/><path d="m389.553 393.647a6.007 6.007 0 0 0 -7.065 4.7 22.086 22.086 0 0 1 -10 14.377 21.535 21.535 0 0 1 -4.408 2.092 6 6 0 1 0 3.9 11.348 33.459 33.459 0 0 0 6.851-3.255 34.086 34.086 0 0 0 15.42-22.2 6 6 0 0 0 -4.698-7.062z"/></svg>