<?xml version="1.0"?>
<svg xmlns="http://www.w3.org/2000/svg" id="Layer_1" data-name="Layer 1" viewBox="0 0 512 512" width="512" height="512"><path d="M181,219.56a70.182,70.182,0,0,0,49.782-20.587h0a70.439,70.439,0,0,0,10.963-85.365l-55.57-94.86a6,6,0,0,0-10.354,0l-55.57,94.86A70.362,70.362,0,0,0,181,219.56Zm-50.394-99.887L181,33.65l50.394,86.023a58.4,58.4,0,1,1-100.788,0Z"/><path d="M194.91,190.372a5.976,5.976,0,0,0,1.939-.324,41.3,41.3,0,0,0,8.45-4.009,42,42,0,0,0,18.943-27.272,6,6,0,0,0-11.763-2.374,30.009,30.009,0,0,1-13.527,19.461,29.254,29.254,0,0,1-5.98,2.838,6,6,0,0,0,1.938,11.68Z"/><path d="M458.42,454.22H428.57V194.94a10.011,10.011,0,0,0-10-10h-37.1a10.011,10.011,0,0,0-10,10V454.22H337.66V239.86a10.011,10.011,0,0,0-10-10H290.55a10.011,10.011,0,0,0-10,10V454.22H246.74V293.28a10.011,10.011,0,0,0-10-10H199.63a10.011,10.011,0,0,0-10,10V454.22H158.82V353.36a10.011,10.011,0,0,0-10-10h-37.1a10.011,10.011,0,0,0-10,10V454.22H74.58V340.461l68.365-86.7L245.2,252.629a6,6,0,0,0,4.367-1.957L372.189,116.18l2.736,39.653a6,6,0,0,0,5.979,5.587c.139,0,.279,0,.419-.014a6,6,0,0,0,5.573-6.4l-3.378-48.974a9.4,9.4,0,0,0-5.11-7.712,5.976,5.976,0,0,0-.632-.3L377.721,98a9.965,9.965,0,0,0-4.459-.761l-53.1,3.35a6,6,0,1,0,.756,11.976L361.583,110,242.454,240.659l-102.511,1.132a6,6,0,0,0-4.645,2.284L74.58,321.08V74.39a21,21,0,0,0-42,0V490.22a6,6,0,0,0,6,6H458.42a21.023,21.023,0,0,0,21-21A21.024,21.024,0,0,0,458.42,454.22ZM383.47,196.94h33.1V454.22h-33.1Zm-90.92,44.92h33.11V454.22H292.55Zm-90.92,53.42h33.11V454.22H201.63Zm-87.91,60.08h33.1v98.86h-33.1ZM464.769,481.585a8.9,8.9,0,0,1-6.349,2.635H44.58V74.39a9,9,0,1,1,18,0V460.22a6,6,0,0,0,6,6H458.42a9.01,9.01,0,0,1,9,9A8.914,8.914,0,0,1,464.769,481.585Z"/></svg>
