<?xml version="1.0"?>
<svg xmlns="http://www.w3.org/2000/svg" id="Layer_1" data-name="Layer 1" viewBox="0 0 512 512" width="512" height="512"><path d="M349.753,194.792h0A68.987,68.987,0,0,0,360.487,111.2l-54.31-92.71a6,6,0,0,0-10.354,0L241.512,111.2a68.943,68.943,0,0,0,108.241,83.593ZM244.06,146.02a56.994,56.994,0,0,1,7.807-28.757L301,33.39l49.133,83.872A56.943,56.943,0,1,1,244.06,146.02Z"/><path d="M314.59,186.432a5.987,5.987,0,0,0,1.954-.329,41.083,41.083,0,0,0,8.276-3.935,41.612,41.612,0,0,0,7.372-5.856A40.978,40.978,0,0,0,343.4,155.436a6,6,0,0,0-11.76-2.392,29.022,29.022,0,0,1-7.933,14.784,29.575,29.575,0,0,1-5.231,4.154,28.961,28.961,0,0,1-5.84,2.775,6,6,0,0,0,1.954,11.675Z"/><path d="M458.42,454.48H428.57V373.62a10.011,10.011,0,0,0-10-10h-37.1a10.011,10.011,0,0,0-10,10v80.86H340.66V314.55a10.011,10.011,0,0,0-10-10H293.55a10.011,10.011,0,0,0-10,10V454.48H249.74V274.12a10.011,10.011,0,0,0-10-10H202.63a10.011,10.011,0,0,0-10,10V454.48H158.82V195.21a10.011,10.011,0,0,0-10-10h-37.1a10.011,10.011,0,0,0-10,10V454.48H74.58V126.727l91.589,16.835,83.352,95.9a6.006,6.006,0,0,0,2.943,1.85l148.14,40.6-32.638,20.98a6,6,0,1,0,6.488,10.094l41.293-26.542a9.59,9.59,0,0,0,2.769-13.22l-28.51-44.93a6,6,0,0,0-10.132,6.43L402.2,269.908,257.387,230.223,173.849,134.1a6.007,6.007,0,0,0-3.444-1.965L74.58,114.526V74.65a21,21,0,1,0-42,0V490.48a6,6,0,0,0,6,6H458.42a21.021,21.021,0,0,0,21-21A21.024,21.024,0,0,0,458.42,454.48Zm-74.95-78.86h33.1v78.86h-33.1Zm-87.92-59.07h33.11V454.48H295.55Zm-90.92-40.43h33.11V454.48H204.63Zm-90.91-78.91h33.1V454.48h-33.1ZM464.77,481.845a8.9,8.9,0,0,1-6.35,2.635H44.58V74.65a9,9,0,1,1,18,0V460.48a6,6,0,0,0,6,6H458.42a9.01,9.01,0,0,1,9,9A8.916,8.916,0,0,1,464.77,481.845Z"/></svg>
