<?xml version="1.0"?>
<svg xmlns="http://www.w3.org/2000/svg" id="Layer_1" data-name="Layer 1" viewBox="0 0 512 512" width="512" height="512"><path d="M495.12,41.9H77.73V23.62a6,6,0,0,0-6-6H16.74a6,6,0,0,0-6,6.171l2.19,76.811c.022.881.065,1.774.118,2.626a97.787,97.787,0,0,0,29,64.086c.527.518,1.066,1.035,1.607,1.545l18.6,17.51A6,6,0,0,0,66.37,188H67v38.564a22.619,22.619,0,0,0,0,43.623V482.21H79V270.187a22.619,22.619,0,0,0,0-43.623V188h7.45a6,6,0,0,0,5.812-7.493l-6.971-27.132C83.46,146.256,81.95,139.033,80.8,131.9A239.526,239.526,0,0,1,77.91,102.74H216.94l-.029,348H200.75a37.631,37.631,0,0,0-37.64,37.64,6,6,0,0,0,6,6H342.89a6,6,0,0,0,6-6,37.682,37.682,0,0,0-37.64-37.64H295.871l.058-348H389.17v20.64a6,6,0,0,0,6,6H414.5v149H408a6,6,0,0,0-6,6V485.74a6,6,0,0,0,6,6h46a6,6,0,0,0,6-6V284.38a6,6,0,0,0-6-6h-6.5v-149h19.33a6,6,0,0,0,6-6V102.74h22.43a6,6,0,0,0,6-6.017l-.14-48.84A6,6,0,0,0,495.12,41.9ZM22.913,29.62H65.73V42.26H23.273Zm.7,24.64H65.73V66.89H23.975Zm.7,24.63H65.73l.021,17.939c0,.021,0,.04,0,.061H24.83Zm1.323,30H66.2c.362,5.994.942,12.012,1.738,18H30.033A85.11,85.11,0,0,1,25.64,108.89Zm9.821,30H69.834c1.065,5.827,2.346,11.684,3.835,17.474l.135.526H48.66A85.372,85.372,0,0,1,35.461,138.89ZM83.63,248.38A10.63,10.63,0,1,1,73,237.75,10.637,10.637,0,0,1,83.63,248.38ZM78.714,176H68.75L61.2,168.89h15.69ZM311.25,462.74a25.686,25.686,0,0,1,24.931,19.64H175.812a25.657,25.657,0,0,1,24.938-19.64ZM276.288,146.681l-47.353,21.785,0-43.578Zm-47.349-35V102.74h54.989l-.006,34.243Zm54.981,44.695-.008,45.442L234.537,179.1Zm-7.941,55-47.05,21.65,0-43.3Zm7.93,9.56-.007,43.479-47.237-21.738Zm-8.078,52.976L228.924,295.5l0-43.173Zm8.068,9.5-.007,44.739-48.61-22.361Zm-7.755,54.384-47.226,21.732,0-43.455Zm7.744,9.645-.007,45.548L234.4,370.209Zm-8.058,55.053-46.917,21.585,0-43.178ZM283.877,412l-.006,38.744h-54.96V437.286ZM448,290.38V479.74H414V290.38Zm-21.5-12v-149h9v149ZM454,90.74a6,6,0,0,0,0,12h6.829v14.64H401.17V102.74H431a6,6,0,0,0,0-12H77.73V53.9H489.138l.1,36.84Z"/><path d="M135.33,70.27H129.5a6,6,0,0,0,0,12h5.83a6,6,0,0,0,0-12Z"/><path d="M262.76,70.27H153.24a6,6,0,0,0,0,12H262.76a6,6,0,0,0,0-12Z"/></svg>
