<svg id="Layer_1" height="512" viewBox="0 0 512 512" width="512" xmlns="http://www.w3.org/2000/svg" data-name="Layer 1"><path d="m96.12 358.7a24.37 24.37 0 1 0 24.37 24.37 24.4 24.4 0 0 0 -24.37-24.37zm0 36.74a12.37 12.37 0 1 1 12.37-12.37 12.389 12.389 0 0 1 -12.37 12.37z"/><path d="m423.88 358.7a24.37 24.37 0 1 0 24.38 24.37 24.4 24.4 0 0 0 -24.38-24.37zm0 36.74a12.37 12.37 0 1 1 12.38-12.37 12.384 12.384 0 0 1 -12.38 12.37z"/><path d="m44.46 133.97a6 6 0 0 0 -6 6v5.83a6 6 0 0 0 12 0v-5.83a6 6 0 0 0 -6-6z"/><path d="m44.46 156.71a6 6 0 0 0 -6 6v46.53a6 6 0 0 0 12 0v-46.53a6 6 0 0 0 -6-6z"/><path d="m474.389 285.893-26.283-95.423h11.214a6 6 0 0 0 6-6v-5.85c0-21.306-20.716-38.64-46.18-38.64h-59.42a36.04 36.04 0 0 0 -36 36v107.86h-47.74v-19.21a57.445 57.445 0 0 0 40.23-54.57v-49.28a57.155 57.155 0 0 0 -55.855-57.068 16.735 16.735 0 0 0 -16.155-12.352 16.758 16.758 0 0 0 -16.129 12.32h-6.391v-17.75a6 6 0 0 0 -6-6h-50.51a6 6 0 0 0 -6 6v17.75h-66.523a16.737 16.737 0 0 0 -16.137-12.32 16.765 16.765 0 0 0 -16.147 12.352 57.159 57.159 0 0 0 -55.863 57.068v49.28a57.439 57.439 0 0 0 40.23 54.562v19.218h-20.23a10.011 10.011 0 0 0 -10 10v19.23a9.929 9.929 0 0 0 .841 4 9.926 9.926 0 0 0 -.841 4v52.55a10.011 10.011 0 0 0 10 10h22.634a48.989 48.989 0 0 0 97.972 0h229.788a48.989 48.989 0 0 0 97.972 0h24.634a10.011 10.011 0 0 0 10-10v-35.17c0-10.444-3.714-22.2-10.188-32.263-6.194-9.624-14.236-16.71-22.923-20.294zm-13.18-2.663h-13.187l-16.968-72.822a6 6 0 0 0 -5.844-4.638h-66.355a16.008 16.008 0 0 1 15.965-15.3h60.84zm-25.509 0h-76.88v-65.46h61.627zm-99.98-107.25a24.027 24.027 0 0 1 24-24h59.42c18.783 0 34.076 11.87 34.179 26.49h-78.5a28.032 28.032 0 0 0 -28 28v77.37h-11.1zm-74.77-60.253a45.149 45.149 0 0 1 43.26 45.053v49.28a44.969 44.969 0 0 1 -43.26 45.061zm-.828 151.416q1.935-.034 3.858-.2v16.9h-39.55v-16.673h3.862a16.753 16.753 0 0 0 15.908 11.54 16.77 16.77 0 0 0 15.922-11.567zm-88.952-175.213h38.51v11.75h-38.51zm-12.56 23.75h68.85v21.58a6 6 0 0 0 12 0v-29.16a4.74 4.74 0 0 1 8.107-3.337 4.671 4.671 0 0 1 1.383 3.337v153.87a4.751 4.751 0 0 1 -4.75 4.74 4.756 4.756 0 0 1 -4.74-4.74v-99.26a6 6 0 0 0 -12 0v92.46h-68.85zm53.82 151.49v16.67h-104.14v-16.67zm-87.16-151.49h21.34v19.44h-21.34zm0 31.44h21.34v17.49h-21.34zm0 29.49h21.34v17.5h-21.34zm0 29.5h21.34v17.49h-21.34zm0 29.49h21.34v19.57h-21.34zm-32.02-119.92h20.02v139.49h-20.02zm-21.49-7.58a4.75 4.75 0 0 1 4.75-4.74 4.756 4.756 0 0 1 4.74 4.74v153.87a4.74 4.74 0 0 1 -8.108 3.336 4.67 4.67 0 0 1 -1.382-3.336zm-11.178 159.042a16.756 16.756 0 0 0 15.928 11.568 16.764 16.764 0 0 0 15.9-11.54h3.88v16.67h-39.56v-16.9q1.92.167 3.852.202zm-44.082-57.082v-49.28a45.153 45.153 0 0 1 43.26-45.053v139.393a44.7 44.7 0 0 1 -7.76-.984 45.32 45.32 0 0 1 -35.5-44.076zm79.62 210.01a37.042 37.042 0 0 1 -37-37 35.912 35.912 0 0 1 .294-4.622 37 37 0 0 1 73.413-.04v.019a36.431 36.431 0 0 1 .291 4.643 37.042 37.042 0 0 1 -36.998 37zm327.76 0a37.042 37.042 0 0 1 -37-37 38.356 38.356 0 0 1 .293-4.673 37 37 0 0 1 73.4-.026v.012a36.978 36.978 0 0 1 -36.7 41.687zm71.62-48.45h-23.983a48.994 48.994 0 0 0 -95.278 0h-17.419v-20.62a6 6 0 0 0 -12 0v20.62h-203.06a48.994 48.994 0 0 0 -95.278 0h-21.982v-48.55h65.87a6 6 0 0 0 0-12h-65.87v-15.23h320.32v15.23h-227.49a6 6 0 1 0 0 12h227.49v4.93a6 6 0 0 0 12 0v-32.77h102.51a21.523 21.523 0 0 1 6.232.943c13.188 3.99 27.938 22.918 27.938 42.277z"/></svg>