<?xml version="1.0"?>
<svg xmlns="http://www.w3.org/2000/svg" id="Layer_1" data-name="Layer 1" viewBox="0 0 512 512" width="512" height="512"><path d="M136.66,397.6h-5.83a6,6,0,0,0,0,12h5.83a6,6,0,0,0,0-12Z"/><path d="M149.57,403.6a6,6,0,0,0,6,6H214.1a6,6,0,1,0,0-12H155.57A6,6,0,0,0,149.57,403.6Z"/><path d="M396.828,363.128a6,6,0,0,0-10.354,0l-29.413,50.2a40.08,40.08,0,1,0,69.167,0Zm14.67,90.319a28.079,28.079,0,0,1-44.081-34.054l24.232-41.362,24.224,41.362A28.093,28.093,0,0,1,411.5,453.447Z"/><path d="M411.431,427.209a6.006,6.006,0,0,0-7.072,4.69,13.017,13.017,0,0,1-8.485,9.7,6,6,0,1,0,3.912,11.344,25.015,25.015,0,0,0,16.335-18.662A6,6,0,0,0,411.431,427.209Z"/><path d="M391.65,330.57a85.78,85.78,0,0,0-44,12.04,65.587,65.587,0,0,0-30.277-31.076c-.159-.08-.323-.153-.489-.218l-31.5-12.379c11.55-15.684,15.231-39.739,9.793-66.467l-9.846-48.653a25.055,25.055,0,0,0,4.563-21.363,20.2,20.2,0,0,0-12.336-14.142l.549-7.972h1.019a17.133,17.133,0,0,0,5.4-33.4,104.6,104.6,0,0,0-7.837-35.18A88.373,88.373,0,0,0,253.47,39.826V37.64a17.377,17.377,0,0,0-27.444-14.167A90.8,90.8,0,0,0,209.694,19,17.529,17.529,0,0,0,193.85,8.74a17.387,17.387,0,0,0-15.858,10.273,91.215,91.215,0,0,0-16.324,4.477A17.371,17.371,0,0,0,134.22,37.64v2.245a88.268,88.268,0,0,0-23.192,31.927,104.929,104.929,0,0,0-7.86,35.129,17.134,17.134,0,0,0,5.4,33.4h.629l.55,7.95a20.166,20.166,0,0,0-12.384,14.152,25.123,25.123,0,0,0,6.6,23.727l-12.9,45.866c-.04.143-.075.286-.1.431-3.551,17.494-6.68,47.808,7.863,67.837L70.805,311.316q-.248.1-.488.217a66.435,66.435,0,0,0-36.287,53.6c-.013.165-.02.332-.02.5v94.16a6,6,0,0,0,6,6H320.468A86.344,86.344,0,1,0,391.65,330.57ZM273.7,294.344l-29.212-11.48V250.717a81.188,81.188,0,0,0,30.231-58.852l8.7,42.991C287.392,254.373,286.723,279.626,273.7,294.344Zm5.608,15.1v56.88H265.68V304.083ZM230.69,37.64a5.25,5.25,0,0,1,1.2-3.384c.119-.144.243-.285.381-.424a5.392,5.392,0,0,1,9.2,3.808v23.4a5.392,5.392,0,0,1-5.311,5.39l-.274-.009a5.362,5.362,0,0,1-5.195-5.381ZM188.46,26.13a5.163,5.163,0,0,1,.057-.8l0-.015a5.416,5.416,0,0,1,5.331-4.57,5.429,5.429,0,0,1,5.325,4.594,5.153,5.153,0,0,1,.055.8V61.04a5.392,5.392,0,0,1-5.312,5.39l-.272-.009a5.357,5.357,0,0,1-5.186-5.381ZM146.22,37.64a5.39,5.39,0,0,1,10.78,0v23.4a5.392,5.392,0,0,1-5.312,5.39l-.272-.009a5.362,5.362,0,0,1-5.2-5.381Zm-37.65,90.7a5.14,5.14,0,1,1,0-10.28h22.256a6,6,0,0,0,0-12H115.244a92.289,92.289,0,0,1,6.83-29.559,75.8,75.8,0,0,1,12.146-19.6V61.04A17.3,17.3,0,0,0,151.1,78.417l.079,0c.147.007.3.011.436.011A17.4,17.4,0,0,0,169,61.04V37.64a17.275,17.275,0,0,0-.454-3.865,79.463,79.463,0,0,1,7.914-2.217V61.04a17.3,17.3,0,0,0,16.875,17.377l.079,0c.148.007.3.011.436.011a17.4,17.4,0,0,0,17.38-17.39V31.545a78.849,78.849,0,0,1,7.916,2.213,17.283,17.283,0,0,0-.456,3.882v23.4a17.3,17.3,0,0,0,16.885,17.377l.08,0c.148.007.294.011.435.011a17.4,17.4,0,0,0,17.38-17.39v-4.2a75.893,75.893,0,0,1,12.178,19.622,91.908,91.908,0,0,1,6.807,29.6H155a6,6,0,0,0,0,12H279.13a5.14,5.14,0,1,1,0,10.28Zm157.514,12-.8,11.587c0,.035-.011.09-.013.125a1.718,1.718,0,0,1-.309.767l-4.684-12.479Zm-140.374,0-1.945,12.142-1.659-.852a.2.2,0,0,1-.094-.119l-.018-.073-.767-11.1ZM109.02,165.3a8.093,8.093,0,0,1,4.312-5.479,12.144,12.144,0,0,0,3.3,2.485l9.01,4.63a6,6,0,0,0,8.667-4.388l3.558-22.209h109.6l9.431,25.128a6,6,0,0,0,9.711,2.278l6.323-5.9a13.535,13.535,0,0,0,1.552-1.715,8.11,8.11,0,0,1,3.765,5.186,13.06,13.06,0,0,1,.376,3.126,12.92,12.92,0,0,1-3.108,8.481c-.266.313-.556.627-.844.916a12.976,12.976,0,0,1-6.867,3.544,6,6,0,0,0-4.961,5.909v.12a69.19,69.19,0,0,1-138.38,0v-.11a6,6,0,0,0-4.952-5.908,13.1,13.1,0,0,1-5.279-2.192l0-.008A13.138,13.138,0,0,1,109.02,165.3Zm123.47,93.423v24.67c-27.507,12.806-49.782,12.808-77.29,0V258.926a81.207,81.207,0,0,0,77.29-.2ZM102.677,235.069l10.466-37.2a80.522,80.522,0,0,0,23.1,46.957,81.425,81.425,0,0,0,6.952,6.2v31.841l-32.686,12.847C95.877,279.135,100.017,248.285,102.677,235.069Zm19.343,69.012V366.32H108.38V309.441ZM96.38,366.32h-4.6a6,6,0,0,0-6,6v81.47H46.01v-87.9a54.375,54.375,0,0,1,29.44-43.5l20.93-8.225Zm193.54,87.47H97.78V378.32H148.6a6,6,0,0,0,0-12H134.02V299.364L148.7,293.6c15.943,7.611,30.545,11.426,45.146,11.426s29.2-3.815,45.145-11.427l14.689,5.773V366.32H173a6,6,0,0,0,0,12H289.92Zm12,0V372.32a6,6,0,0,0-6-6h-4.61V314.157l20.929,8.226a53.69,53.69,0,0,1,25.374,27.184A86.355,86.355,0,0,0,313.566,453.79Zm89.73,37.47a74.345,74.345,0,1,1,74.34-74.34A74.025,74.025,0,0,1,391.65,491.26Z"/></svg>
