<?xml version="1.0"?>
<svg xmlns="http://www.w3.org/2000/svg" id="Layer_1" data-name="Layer 1" viewBox="0 0 512 512" width="512" height="512"><path d="M492.59,115.84h.02a5.656,5.656,0,0,0,2.051-.345,6.031,6.031,0,0,0,3.331-8.338,64.281,64.281,0,0,0-116.166,2.183H356.385A24.4,24.4,0,0,0,318.2,90.651a24.576,24.576,0,0,0-8.791-11.6,23.666,23.666,0,0,0-9.45-4.076,24.385,24.385,0,0,0-17.634,3.253A24.518,24.518,0,0,0,271.614,62.6a22.993,22.993,0,0,0-7.625-3.227,24.429,24.429,0,0,0-23.4,7.146,24.4,24.4,0,0,0-23.752-8.629,23.527,23.527,0,0,0-9.166,3.9A24.385,24.385,0,0,0,197.21,81.84v27.5H130.174a64.272,64.272,0,0,0-116.061-2.372,6.1,6.1,0,0,0-.522,4.185,6.011,6.011,0,0,0,5.839,4.6H49.472a39.169,39.169,0,0,1-.942,39.979l-29.15-.1a6.01,6.01,0,0,0-5.837,4.59,6.106,6.106,0,0,0,.516,4.184,64.274,64.274,0,0,0,116.116-2.284h7.875v56.43a37.79,37.79,0,0,0,11.057,26.683l9.72,9.72a74.346,74.346,0,0,1,21.686,46.987H176.8a19.15,19.15,0,0,0-19.15,19.15v39.43a19.14,19.14,0,0,0,19.14,19.14h88.58a112.708,112.708,0,0,0,38.366,52.508A111.669,111.669,0,1,0,370.83,231.26a112.292,112.292,0,0,0-14.4.932V162.12h25.395a64.266,64.266,0,0,0,116.113,2.27,6.006,6.006,0,0,0-1.282-7.077,6.273,6.273,0,0,0-4.312-1.6H462.527a39.137,39.137,0,0,1,.942-39.969ZM261.931,367.66H176.8a7.17,7.17,0,0,1-7.15-7.15V321.08a7.14,7.14,0,0,1,7.14-7.14h86.2a112.059,112.059,0,0,0-1.056,53.72Zm108.9-124.4a99.6,99.6,0,0,1,99.65,99.65,99.655,99.655,0,1,1-193.873-32.544c.042-.1.082-.2.118-.31a100.164,100.164,0,0,1,24.469-38.43,6,6,0,1,0-8.386-8.583,112.339,112.339,0,0,0-25.854,38.9H192.543a86.275,86.275,0,0,0-25.23-55.473L157.847,237a26.659,26.659,0,0,1-4.555-5.95,25.746,25.746,0,0,1-3.242-12.5V162.12h8.032a6.167,6.167,0,0,0,6.249-5.815,6,6,0,0,0-6-6.185H126.16a5.949,5.949,0,0,0-5.594,3.828A52.485,52.485,0,0,1,71.58,187.99a51.947,51.947,0,0,1-41.394-20.323l21.523.073a6.027,6.027,0,0,0,4.962-2.595l.485-.706a51.144,51.144,0,0,0,.633-58.068,5.959,5.959,0,0,0-4.959-2.621H30.23A51.948,51.948,0,0,1,71.58,83.48a52.482,52.482,0,0,1,48.986,34.032,5.949,5.949,0,0,0,5.594,3.828h71.05v28.78H177.919a6.167,6.167,0,0,0-6.249,5.815,6,6,0,0,0,6,6.185H197.21l-.044,4.291c-.609,14.1-10.295,26.889-24.128,31.827l-.388.141a6.134,6.134,0,0,0-4,7.04,6,6,0,0,0,7.894,4.312l.555-.2c18.645-6.656,31.228-23.378,32.058-42.608l.055-85.083a12.4,12.4,0,0,1,12.851-12.4,12.665,12.665,0,0,1,11.949,12.8v62.446a6.166,6.166,0,0,0,5.815,6.248,6,6,0,0,0,6.185-6V83.548a12.665,12.665,0,0,1,11.78-12.782,12.322,12.322,0,0,1,9.193,3.418,12.912,12.912,0,0,1,3.837,9.367v61.127a6.166,6.166,0,0,0,5.816,6.249,6,6,0,0,0,6.184-6V99.356c0-7.056,5.7-13.027,12.754-12.831a12.318,12.318,0,0,1,8.239,3.447,12.919,12.919,0,0,1,3.817,9.349V138.93a6,6,0,0,0,12,0V111.151a12.918,12.918,0,0,1,3.834-9.365,12.332,12.332,0,0,1,9.192-3.421,12.655,12.655,0,0,1,11.774,12.772V234.416a110.649,110.649,0,0,0-29.974,12.1,6,6,0,1,0,6.065,10.353A99.547,99.547,0,0,1,370.83,243.26Zm84.5-136.934-.485.7a51.109,51.109,0,0,0-.666,58.008,6,6,0,0,0,4.992,2.672h22.6a51.943,51.943,0,0,1-41.351,20.28,52.487,52.487,0,0,1-48.959-33.969,6,6,0,0,0-5.621-3.9H356.43V121.34h29.41a6,6,0,0,0,5.621-3.9A52.295,52.295,0,0,1,481.819,103.8l-21.529-.073A5.874,5.874,0,0,0,455.329,106.326Z"/><path d="M223.405,168.067a6,6,0,0,0-6.828,5.038,55.506,55.506,0,0,1-30.842,41.47,6,6,0,1,0,5.25,10.791A67.506,67.506,0,0,0,228.443,174.9,6,6,0,0,0,223.405,168.067Z"/><path d="M223.21,149.79a6,6,0,0,0-6,6v2.74a6,6,0,0,0,12,0v-2.74A6,6,0,0,0,223.21,149.79Z"/><path d="M421.835,100.051a40.218,40.218,0,0,0-19.136,21.59,6,6,0,1,0,11.242,4.2,28.241,28.241,0,0,1,13.444-15.15,6,6,0,1,0-5.55-10.638Z"/><path d="M444.593,95.691a41.127,41.127,0,0,0-4.173-.211,6,6,0,1,0,0,12,28.885,28.885,0,0,1,2.947.149,6.19,6.19,0,0,0,.62.032,6,6,0,0,0,.606-11.97Z"/><path d="M316.71,366.43A54.113,54.113,0,1,0,417.517,339.1l-41.51-70.86a6,6,0,0,0-5.177-2.967h0a6,6,0,0,0-5.177,2.967L324.132,339.1A54.159,54.159,0,0,0,316.71,366.43Zm17.777-21.267,36.342-62.024,36.333,62.023a42.137,42.137,0,0,1-6.565,51.066h0a42.111,42.111,0,0,1-66.109-51.066Z"/><path d="M377.909,392.731a6,6,0,0,0,1.948-.326,32.8,32.8,0,0,0,21.456-24.516,6,6,0,1,0-11.766-2.358,20.8,20.8,0,0,1-13.584,15.524,6,6,0,0,0,1.946,11.676Z"/></svg>
