<?xml version="1.0"?>
<svg xmlns="http://www.w3.org/2000/svg" id="Layer_1" data-name="Layer 1" viewBox="0 0 512 512" width="512" height="512"><path d="M136.66,397.6h-5.83a6,6,0,0,0,0,12h5.83a6,6,0,0,0,0-12Z"/><path d="M149.57,403.6a6,6,0,0,0,6,6H214.1a6,6,0,1,0,0-12H155.57A6,6,0,0,0,149.57,403.6Z"/><path d="M397.177,364.627a6,6,0,0,0-10.354,0l-29.413,50.2a40.085,40.085,0,0,0,62.933,48.6v0a40.126,40.126,0,0,0,6.243-48.6Zm14.678,90.322a28.085,28.085,0,0,1-44.088-34.056L392,379.53l24.231,41.36A28.116,28.116,0,0,1,411.855,454.949Z"/><path d="M411.788,428.709a6,6,0,0,0-7.069,4.692,13,13,0,0,1-8.488,9.694,6,6,0,1,0,3.9,11.35,25,25,0,0,0,16.352-18.666A6,6,0,0,0,411.788,428.709Z"/><path d="M392,332.07a85.75,85.75,0,0,0-43.511,11.764,66.207,66.207,0,0,0-31.465-33.8q-.24-.12-.489-.218L244.13,281.362V249.228a82.03,82.03,0,0,0,6.581-5.9,80.557,80.557,0,0,0,23.662-53,25.154,25.154,0,0,0,15.175-29.372A20.193,20.193,0,0,0,277.2,146.809l.55-7.969h1.018a17.133,17.133,0,0,0,5.4-33.4,104.844,104.844,0,0,0-7.826-35.178A88.4,88.4,0,0,0,253.11,38.318V36.14a17.4,17.4,0,0,0-17.39-17.38,17.225,17.225,0,0,0-10.043,3.215,91.133,91.133,0,0,0-16.306-4.469,17.394,17.394,0,0,0-31.739.007,91.1,91.1,0,0,0-16.314,4.477A17.372,17.372,0,0,0,133.87,36.14v2.243a88.351,88.351,0,0,0-23.2,31.933,105.126,105.126,0,0,0-7.849,35.124,17.134,17.134,0,0,0,5.392,33.4h.639l.549,7.95a20.211,20.211,0,0,0-12.393,14.152,25.162,25.162,0,0,0,15.224,29.411,81.214,81.214,0,0,0,30.621,59.176v31.834L70.444,309.816c-.166.065-.329.138-.488.217a66.445,66.445,0,0,0-36.285,53.6q-.021.249-.021.5v94.16a6,6,0,0,0,6,6h279.2A86.346,86.346,0,1,0,392,332.07ZM265.32,302.582l13.64,5.361V364.82H265.32ZM230.34,36.14a5.32,5.32,0,0,1,1.215-3.387c.024-.03.049-.06.072-.09a3.876,3.876,0,0,1,.295-.33,5.334,5.334,0,0,1,3.8-1.573,5.391,5.391,0,0,1,5.39,5.38v23.4a5.392,5.392,0,0,1-5.311,5.39l-.275-.009a5.357,5.357,0,0,1-5.184-5.381ZM188.1,24.63a5.153,5.153,0,0,1,.055-.8l0-.024a5.418,5.418,0,0,1,5.331-4.57,5.43,5.43,0,0,1,5.333,4.585,5.288,5.288,0,0,1,.057.8V59.54a5.392,5.392,0,0,1-5.312,5.39l-.272-.009a5.362,5.362,0,0,1-5.2-5.381ZM145.87,36.14a5.386,5.386,0,0,1,5.39-5.38,5.365,5.365,0,0,1,5.38,5.38v23.4a5.392,5.392,0,0,1-5.311,5.39l-.273-.009a5.358,5.358,0,0,1-5.186-5.381Zm-37.66,90.7a5.14,5.14,0,1,1,0-10.28H136a6,6,0,0,0,0-12H114.894a92.455,92.455,0,0,1,6.819-29.555A76.011,76.011,0,0,1,133.87,55.4v4.14a17.3,17.3,0,0,0,16.875,17.377l.079,0c.148.007.295.011.436.011a17.4,17.4,0,0,0,17.38-17.39V36.14a17.323,17.323,0,0,0-.452-3.864,79.233,79.233,0,0,1,7.912-2.217V59.54a17.3,17.3,0,0,0,16.885,17.377l.078,0c.148.007.3.011.437.011a17.4,17.4,0,0,0,17.38-17.39V30.045a79.277,79.277,0,0,1,7.917,2.214,17.282,17.282,0,0,0-.457,3.881v23.4a17.3,17.3,0,0,0,16.875,17.377l.079,0c.147.007.295.011.436.011a17.4,17.4,0,0,0,17.38-17.39V55.328A75.8,75.8,0,0,1,265.3,74.954a92.13,92.13,0,0,1,6.8,29.606H164a6,6,0,0,0,0,12H278.77a5.14,5.14,0,1,1,0,10.28Zm157.515,12-.8,11.587c0,.035-.012.09-.014.125a1.715,1.715,0,0,1-.307.764l-4.677-12.476Zm-140.366,0-1.945,12.143-1.672-.859a.226.226,0,0,1-.091-.157c0-.021-.006-.043-.008-.064l-.766-11.063Zm-1.249,47.07v-.11a6,6,0,0,0-4.962-5.91,13.153,13.153,0,0,1-10.491-16.08,8.124,8.124,0,0,1,4.321-5.486,12.047,12.047,0,0,0,3.3,2.483l9.011,4.63a6,6,0,0,0,8.667-4.388l3.559-22.209h109.6l9.422,25.126a6,6,0,0,0,9.713,2.28l6.324-5.905a13.567,13.567,0,0,0,1.554-1.716,8.12,8.12,0,0,1,3.772,5.193,13.161,13.161,0,0,1-10.447,16.063,6,6,0,0,0-4.958,5.909v.12a68.7,68.7,0,0,1-20.263,48.928,70.591,70.591,0,0,1-7.677,6.638A69.2,69.2,0,0,1,124.11,185.91Zm108.02,71.319v24.665c-27.5,12.805-49.777,12.805-77.28,0V257.431a81.224,81.224,0,0,0,77.28-.2ZM108.02,307.943l13.64-5.36V364.82H108.02Zm-12,56.877h-4.6a6,6,0,0,0-6,6v81.47H45.65v-87.9a54.381,54.381,0,0,1,29.441-43.5l20.929-8.224Zm193.54,87.47H97.42V376.82h47.907a6,6,0,0,0,0-12H133.66V297.867l14.69-5.772c15.941,7.61,30.542,11.425,45.14,11.425s29.2-3.816,45.142-11.426l14.688,5.772V364.82H168.671a6,6,0,0,0,0,12H289.56Zm12,0V370.82a6,6,0,0,0-6-6h-4.6V312.658l20.929,8.225a54.171,54.171,0,0,1,26.432,29.907,86.338,86.338,0,0,0-25.751,101.5ZM392,492.76a74.345,74.345,0,1,1,74.35-74.34A74.584,74.584,0,0,1,392,492.76Z"/></svg>
