<svg id="Layer_1" data-name="Layer 1" xmlns="http://www.w3.org/2000/svg" viewBox="0 0 1920 1080"><defs><style>.cls-1{fill:#F05A2C;}</style></defs><title>bg_squash-01</title><path class="cls-1" d="M130.79,747.94c18.15,22.32,47.62,52.46,91.17,74.49,24.2,12.23,113.74,52.81,277.64,1.18C627.36,783.37,725,697.48,915,527.34c27-24.21,169.92-152.7,322.87-263.85,22.71-16.5,72.7-52.26,146.69-78.5,37.55-13.32,101-35.84,175.5-30.43,151.09,11,245.66,125.89,244.22,128s-87.7-90.69-207.72-87.6c-59,1.52-103.3,25.61-126.08,38.7C1273.83,346.56,1037.17,581.31,825.2,758.5c-69.26,57.89-143.15,115.72-253.45,147.44-57.29,16.48-144.37,40.25-244.41,6.71C209.14,873,148.82,778.83,130.79,747.94Z"/></svg>
